<?xml version="1.0" encoding="UTF-8" standalone="no"?>
<!-- Created with Inkscape (http://www.inkscape.org/) -->

<svg
   xmlns:osb="http://www.openswatchbook.org/uri/2009/osb"
   xmlns:dc="http://purl.org/dc/elements/1.1/"
   xmlns:cc="http://creativecommons.org/ns#"
   xmlns:rdf="http://www.w3.org/1999/02/22-rdf-syntax-ns#"
   xmlns:svg="http://www.w3.org/2000/svg"
   xmlns="http://www.w3.org/2000/svg"
   xmlns:sodipodi="http://sodipodi.sourceforge.net/DTD/sodipodi-0.dtd"
   xmlns:inkscape="http://www.inkscape.org/namespaces/inkscape"
   width="120.59838mm"
   height="49.84602mm"
   viewBox="0 0 427.3171 176.61975"
   id="svg2"
   version="1.1"
   inkscape:version="0.91 r13725"
   sodipodi:docname="banner.svg">
  <defs
     id="defs4">
    <linearGradient
       id="linearGradient5695"
       osb:paint="solid">
      <stop
         style="stop-color:#000000;stop-opacity:1;"
         offset="0"
         id="stop5697" />
    </linearGradient>
  </defs>
  <sodipodi:namedview
     id="base"
     pagecolor="#ffffff"
     bordercolor="#666666"
     borderopacity="1.0"
     inkscape:pageopacity="0.0"
     inkscape:pageshadow="2"
     inkscape:zoom="1.979899"
     inkscape:cx="146.37905"
     inkscape:cy="65.920228"
     inkscape:document-units="px"
     inkscape:current-layer="layer1"
     showgrid="false"
     inkscape:object-paths="true"
     inkscape:snap-nodes="false"
     inkscape:window-width="1920"
     inkscape:window-height="1018"
     inkscape:window-x="-8"
     inkscape:window-y="-8"
     inkscape:window-maximized="1"
     fit-margin-top="0"
     fit-margin-left="0"
     fit-margin-right="0"
     fit-margin-bottom="0" />
  <metadata
     id="metadata7">
    <rdf:RDF>
      <cc:Work
         rdf:about="">
        <dc:format>image/svg+xml</dc:format>
        <dc:type
           rdf:resource="http://purl.org/dc/dcmitype/StillImage" />
        <dc:title />
      </cc:Work>
    </rdf:RDF>
  </metadata>
  <g
     inkscape:groupmode="layer"
     id="layer3"
     inkscape:label="Layer 2"
     style="display:inline"
     transform="translate(-129.56968,-408.35741)"
     sodipodi:insensitive="true">
    <path
       style="display:inline;fill:#ffffff;fill-opacity:1;fill-rule:evenodd;stroke:#000000;stroke-width:0;stroke-linecap:butt;stroke-linejoin:miter;stroke-miterlimit:4;stroke-dasharray:none;stroke-opacity:1"
       d="m 130.56222,409.14757 74.49874,45.45687 -72.79411,52.90674 z"
       id="path6026"
       inkscape:connector-curvature="0"
       sodipodi:nodetypes="cccc" />
    <path
       style="display:inline;fill:#ffffff;fill-opacity:1;fill-rule:evenodd;stroke:#000000;stroke-width:0;stroke-linecap:butt;stroke-linejoin:miter;stroke-miterlimit:4;stroke-dasharray:none;stroke-opacity:1"
       d="m 144.70434,415.9661 c 0,0 -0.75761,1.76777 15.15229,3.283 15.90991,1.51523 225.26403,1.26269 225.26403,1.26269 l 125.00638,0.25253 c -1.9093,23.33302 14.1551,56.43165 20.70813,84.60028 0,0 -14.39468,-17.17259 -44.44672,-18.94036 -30.05204,-1.76777 -137.88582,-4.04061 -137.88582,-4.04061 l -123.99624,0.50508 z"
       id="path6034"
       inkscape:connector-curvature="0"
       sodipodi:nodetypes="cscccsccc" />
    <path
       style="display:inline;fill:#ffffff;fill-opacity:1;fill-rule:evenodd;stroke:#000000;stroke-width:0;stroke-linecap:butt;stroke-linejoin:miter;stroke-miterlimit:4;stroke-dasharray:none;stroke-opacity:1"
       d="m 542.70446,410.41026 -7.32361,103.03556 -23.48605,-93.18657 c 0,0 19.95052,0.75761 30.80966,-9.84899 z"
       id="path6036"
       inkscape:connector-curvature="0"
       sodipodi:nodetypes="cccc" />
    <path
       style="display:inline;fill:#ffffff;fill-opacity:1;fill-rule:evenodd;stroke:#000000;stroke-width:0;stroke-linecap:butt;stroke-linejoin:miter;stroke-miterlimit:4;stroke-dasharray:none;stroke-opacity:1"
       d="m 137.63328,413.18818 71.97337,28.53681 302.54069,-21.2132 23.23351,91.4188 -28.78935,-45.20432 -312.89475,17.17259 z"
       id="path6028"
       inkscape:connector-curvature="0" />
    <path
       style="display:inline;fill:#ffffff;fill-opacity:1;fill-rule:evenodd;stroke:#000000;stroke-width:0;stroke-linecap:butt;stroke-linejoin:miter;stroke-miterlimit:4;stroke-dasharray:none;stroke-opacity:1"
       d="m 132.07745,507.88998 c 0,0 37.88071,-22.98097 62.37691,-23.23351 24.4962,-0.25254 -15.15228,-22.72843 -15.15228,-22.72843 z"
       id="path6030"
       inkscape:connector-curvature="0"
       sodipodi:nodetypes="cscc" />
  </g>
  <g
     inkscape:label="Layer 1"
     inkscape:groupmode="layer"
     id="layer1"
     style="display:inline"
     transform="translate(-129.56968,-408.35741)">
    <path
       style="fill:none;fill-opacity:1;fill-rule:evenodd;stroke:#000000;stroke-width:2.16378546;stroke-linecap:butt;stroke-linejoin:miter;stroke-opacity:1;stroke-miterlimit:4;stroke-dasharray:none"
       d="m 530.35715,583.43363 12.5,-172.85715"
       id="path6001"
       inkscape:connector-curvature="0" />
    <path
       style="fill:none;fill-opacity:1;fill-rule:evenodd;stroke:#000000;stroke-width:2.16378546;stroke-linecap:butt;stroke-linejoin:miter;stroke-opacity:1;stroke-miterlimit:4;stroke-dasharray:none"
       d="m 130.35715,408.79076 1.61721,98.5275 1.95422,77.54393"
       id="path3358"
       inkscape:connector-curvature="0" />
    <path
       style="opacity:0;fill:none;stroke-width:2.16378546;stroke-miterlimit:4;stroke-dasharray:none;fill-opacity:1"
       d="m 547.76454,523.14118 c -7.09682,-8.9382 -25.15047,-17.81921 -48.10172,-23.66238 l -5.42315,-1.38067 -68.14828,-0.42483 c -74.11829,-0.46204 -188.1528,-0.26382 -204.21971,0.35498 -11.52344,0.44382 -17.57597,1.06876 -24.7233,2.55276 -15.26217,3.16888 -32.19636,10.05617 -46.34813,18.8502 l -2.85714,1.77546 -0.2564,-2.3816 c -0.14103,-1.30987 -0.58331,-20.46195 -0.98286,-42.56016 -0.39954,-22.09821 -0.82473,-42.55022 -0.94486,-45.44889 l -0.21842,-5.27032 2.45127,1.49246 c 5.12396,3.11975 12.66499,6.09004 19.00178,7.48451 3.34417,0.73592 4.59984,0.76797 41.12806,1.0497 46.34004,0.35741 232.62574,1.05847 279.64286,1.0524 19.90221,-0.003 36.50146,-0.15785 39.28571,-0.3675 12.14575,-0.91456 21.92061,-3.48999 27.49561,-7.24442 1.06111,-0.71459 1.97771,-1.25081 2.03693,-1.19161 0.18068,0.18071 -6.69161,95.33954 -6.96022,96.376 -0.25017,0.96525 -0.25553,0.96219 -1.85803,-1.05609 z"
       id="path3360"
       inkscape:connector-curvature="0" />
    <path
       style="opacity:0;fill:none;stroke-width:2.16378546;stroke-miterlimit:4;stroke-dasharray:none;fill-opacity:1"
       d="m 547.76454,523.14118 c -7.09682,-8.9382 -25.15047,-17.81921 -48.10172,-23.66238 l -5.42315,-1.38067 -68.14828,-0.42483 c -74.11829,-0.46204 -188.1528,-0.26382 -204.21971,0.35498 -11.52344,0.44382 -17.57597,1.06876 -24.7233,2.55276 -15.26217,3.16888 -32.19636,10.05617 -46.34813,18.8502 l -2.85714,1.77546 -0.2564,-2.3816 c -0.14103,-1.30987 -0.58331,-20.46195 -0.98286,-42.56016 -0.39954,-22.09821 -0.82473,-42.55022 -0.94486,-45.44889 l -0.21842,-5.27032 2.45127,1.49246 c 5.12396,3.11975 12.66499,6.09004 19.00178,7.48451 3.34417,0.73592 4.59984,0.76797 41.12806,1.0497 46.34004,0.35741 232.62574,1.05847 279.64286,1.0524 19.90221,-0.003 36.50146,-0.15785 39.28571,-0.3675 12.14575,-0.91456 21.92061,-3.48999 27.49561,-7.24442 1.06111,-0.71459 1.97771,-1.25081 2.03693,-1.19161 0.18068,0.18071 -6.69161,95.33954 -6.96022,96.376 -0.25017,0.96525 -0.25553,0.96219 -1.85803,-1.05609 z"
       id="path3362"
       inkscape:connector-curvature="0" />
    <path
       style="opacity:0;fill:none;stroke-width:2.16378546;stroke-miterlimit:4;stroke-dasharray:none;fill-opacity:1"
       d="m 547.76454,523.14118 c -7.09682,-8.9382 -25.15047,-17.81921 -48.10172,-23.66238 l -5.42315,-1.38067 -68.14828,-0.42483 c -74.11829,-0.46204 -188.1528,-0.26382 -204.21971,0.35498 -11.52344,0.44382 -17.57597,1.06876 -24.7233,2.55276 -15.26217,3.16888 -32.19636,10.05617 -46.34813,18.8502 l -2.85714,1.77546 -0.2564,-2.3816 c -0.14103,-1.30987 -0.58331,-20.46195 -0.98286,-42.56016 -0.39954,-22.09821 -0.82473,-42.55022 -0.94486,-45.44889 l -0.21842,-5.27032 2.45127,1.49246 c 5.12396,3.11975 12.66499,6.09004 19.00178,7.48451 3.34417,0.73592 4.59984,0.76797 41.12806,1.0497 46.34004,0.35741 232.62574,1.05847 279.64286,1.0524 19.90221,-0.003 36.50146,-0.15785 39.28571,-0.3675 12.14575,-0.91456 21.92061,-3.48999 27.49561,-7.24442 1.06111,-0.71459 1.97771,-1.25081 2.03693,-1.19161 0.18068,0.18071 -6.69161,95.33954 -6.96022,96.376 -0.25017,0.96525 -0.25553,0.96219 -1.85803,-1.05609 z"
       id="path3364"
       inkscape:connector-curvature="0" />
    <path
       style="opacity:0;fill:none;stroke-width:2.16378546;stroke-miterlimit:4;stroke-dasharray:none;fill-opacity:1"
       d="m 547.76454,427.22862 c -7.09682,8.9382 -25.15047,17.81921 -48.10172,23.66238 l -5.42315,1.38067 -68.14828,0.42483 c -74.11829,0.46204 -188.1528,0.26382 -204.21971,-0.35498 -11.52344,-0.44382 -17.57597,-1.06876 -24.7233,-2.55276 -15.26217,-3.16888 -32.19636,-10.05617 -46.34813,-18.8502 l -2.85714,-1.77546 -0.2564,2.3816 c -0.14103,1.30987 -0.58331,20.46195 -0.98286,42.56016 -0.39954,22.09821 -0.82473,42.55022 -0.94486,45.44889 l -0.21842,5.27032 2.45127,-1.49246 c 5.12396,-3.11975 12.66499,-6.09004 19.00178,-7.48451 3.34417,-0.73592 4.59984,-0.76797 41.12806,-1.0497 46.34004,-0.35741 232.62574,-1.05847 279.64286,-1.0524 19.90221,0.003 36.50146,0.15785 39.28571,0.3675 12.14575,0.91456 21.92061,3.48999 27.49561,7.24442 1.06111,0.71459 1.97771,1.25081 2.03693,1.19161 0.18068,-0.18071 -6.69161,-95.33954 -6.96022,-96.376 -0.25017,-0.96525 -0.25553,-0.96219 -1.85803,1.05609 z"
       id="path3375"
       inkscape:connector-curvature="0" />
    <path
       style="opacity:0;fill:none;stroke-width:2.16378546;stroke-miterlimit:4;stroke-dasharray:none;fill-opacity:1"
       d="m 547.76454,523.14118 c -7.09682,-8.9382 -25.15047,-17.81921 -48.10172,-23.66238 l -5.42315,-1.38067 -68.14828,-0.42483 c -74.11829,-0.46204 -188.1528,-0.26382 -204.21971,0.35498 -11.52344,0.44382 -17.57597,1.06876 -24.7233,2.55276 -15.26217,3.16888 -32.19636,10.05617 -46.34813,18.8502 l -2.85714,1.77546 -0.2564,-2.3816 c -0.14103,-1.30987 -0.58331,-20.46195 -0.98286,-42.56016 -0.39954,-22.09821 -0.82473,-42.55022 -0.94486,-45.44889 l -0.21842,-5.27032 2.45127,1.49246 c 5.12396,3.11975 12.66499,6.09004 19.00178,7.48451 3.34417,0.73592 4.59984,0.76797 41.12806,1.0497 46.34004,0.35741 232.62574,1.05847 279.64286,1.0524 19.90221,-0.003 36.50146,-0.15785 39.28571,-0.3675 12.14575,-0.91456 21.92061,-3.48999 27.49561,-7.24442 1.06111,-0.71459 1.97771,-1.25081 2.03693,-1.19161 0.18068,0.18071 -6.69161,95.33954 -6.96022,96.376 -0.25017,0.96525 -0.25553,0.96219 -1.85803,-1.05609 z"
       id="path3403"
       inkscape:connector-curvature="0" />
    <path
       style="opacity:0;fill:none;stroke-width:2.16378546;stroke-miterlimit:4;stroke-dasharray:none;fill-opacity:1"
       d="m 547.76454,523.14118 c -7.09682,-8.9382 -25.15047,-17.81921 -48.10172,-23.66238 l -5.42315,-1.38067 -68.14828,-0.42483 c -74.11829,-0.46204 -188.1528,-0.26382 -204.21971,0.35498 -11.52344,0.44382 -17.57597,1.06876 -24.7233,2.55276 -15.26217,3.16888 -32.19636,10.05617 -46.34813,18.8502 l -2.85714,1.77546 -0.2564,-2.3816 c -0.14103,-1.30987 -0.58331,-20.46195 -0.98286,-42.56016 -0.39954,-22.09821 -0.82473,-42.55022 -0.94486,-45.44889 l -0.21842,-5.27032 2.45127,1.49246 c 5.12396,3.11975 12.66499,6.09004 19.00178,7.48451 3.34417,0.73592 4.59984,0.76797 41.12806,1.0497 46.34004,0.35741 232.62574,1.05847 279.64286,1.0524 19.90221,-0.003 36.50146,-0.15785 39.28571,-0.3675 12.14575,-0.91456 21.92061,-3.48999 27.49561,-7.24442 1.06111,-0.71459 1.97771,-1.25081 2.03693,-1.19161 0.18068,0.18071 -6.69161,95.33954 -6.96022,96.376 -0.25017,0.96525 -0.25553,0.96219 -1.85803,-1.05609 z"
       id="path3405"
       inkscape:connector-curvature="0" />
    <path
       style="opacity:0;fill:none;stroke-width:2.16378546;stroke-miterlimit:4;stroke-dasharray:none;fill-opacity:1"
       d="m 547.99127,523.38233 c -6.88872,-8.82029 -24.6115,-17.66457 -47.54943,-23.72882 L 494.90612,498.19 453.8347,497.83408 c -22.58929,-0.19576 -78.51786,-0.37666 -124.28572,-0.40201 -81.3212,-0.045 -107.53796,0.21151 -118.92857,1.16379 -18.73604,1.56638 -39.64458,8.71357 -58.35653,19.94807 l -4.67919,2.80934 -0.004,-2.01212 c -0.002,-1.10667 -0.40231,-21.13712 -0.88963,-44.51212 -0.48731,-23.375 -0.88747,-43.98862 -0.88925,-45.80805 l -0.003,-3.30805 1.36881,0.86409 c 2.54977,1.60959 8.43697,4.41331 11.6669,5.55624 6.32223,2.23716 9.78123,2.88013 17.32143,3.21979 3.83036,0.17254 36.77679,0.41242 73.21429,0.53307 36.4375,0.12065 109.64286,0.36687 162.67857,0.54717 101.16564,0.3439 114.62943,0.23115 122.85714,-1.02887 8.97722,-1.3748 16.20865,-3.79196 20.11275,-6.72284 0.65129,-0.48893 1.28797,-0.78517 1.41483,-0.6583 0.19089,0.19087 -6.6245,97.00337 -6.84533,97.23811 -0.0389,0.0414 -0.7576,-0.80421 -1.5971,-1.87906 z"
       id="path3407"
       inkscape:connector-curvature="0" />
    <path
       style="opacity:0;fill:none;stroke-width:2.16378546;stroke-miterlimit:4;stroke-dasharray:none;fill-opacity:1"
       d="m 547.99127,523.38233 c -6.88872,-8.82029 -24.6115,-17.66457 -47.54943,-23.72882 L 494.90612,498.19 453.8347,497.83408 c -22.58929,-0.19576 -78.51786,-0.37666 -124.28572,-0.40201 -81.3212,-0.045 -107.53796,0.21151 -118.92857,1.16379 -18.73604,1.56638 -39.64458,8.71357 -58.35653,19.94807 l -4.67919,2.80934 -0.004,-2.01212 c -0.002,-1.10667 -0.40231,-21.13712 -0.88963,-44.51212 -0.48731,-23.375 -0.88747,-43.98862 -0.88925,-45.80805 l -0.003,-3.30805 1.36881,0.86409 c 2.54977,1.60959 8.43697,4.41331 11.6669,5.55624 6.32223,2.23716 9.78123,2.88013 17.32143,3.21979 3.83036,0.17254 36.77679,0.41242 73.21429,0.53307 36.4375,0.12065 109.64286,0.36687 162.67857,0.54717 101.16564,0.3439 114.62943,0.23115 122.85714,-1.02887 8.97722,-1.3748 16.20865,-3.79196 20.11275,-6.72284 0.65129,-0.48893 1.28797,-0.78517 1.41483,-0.6583 0.19089,0.19087 -6.6245,97.00337 -6.84533,97.23811 -0.0389,0.0414 -0.7576,-0.80421 -1.5971,-1.87906 z"
       id="path3409"
       inkscape:connector-curvature="0" />
    <path
       style="opacity:0;fill:none;stroke-width:2.16378546;stroke-miterlimit:4;stroke-dasharray:none;fill-opacity:1"
       d="m 547.83695,523.63589 c -7.13333,-9.07956 -25.18436,-18.04718 -47.93083,-23.81168 l -6.07142,-1.53865 -83.03572,-0.44281 c -112.71091,-0.60106 -188.20392,-0.18715 -201.42857,1.10441 -12.27513,1.19882 -24.83944,4.53831 -37.85714,10.06214 -7.03304,2.98434 -17.82878,8.66313 -22.43582,11.80171 -0.84862,0.57814 -1.58524,0.99549 -1.63693,0.92744 -0.15104,-0.19882 -2.01851,-96.11578 -1.87416,-96.26014 0.072,-0.072 1.23867,0.54345 2.59251,1.36773 5.25968,3.20235 12.37965,5.968 19.24725,7.47633 3.52866,0.77499 4.09323,0.78756 47.14286,1.04971 23.96429,0.14592 102.07143,0.46898 173.57143,0.71791 98.89156,0.34429 131.58625,0.35351 136.62889,0.0385 13.90643,-0.86859 23.78907,-3.34652 29.9014,-7.49733 1.29853,-0.88181 2.22635,-1.31658 2.23575,-1.04763 0.0557,1.59609 -6.97122,97.6563 -7.16011,97.88095 -0.12875,0.15309 -0.97897,-0.66979 -1.88939,-1.82864 z"
       id="path3411"
       inkscape:connector-curvature="0" />
    <path
       style="opacity:0;fill:none;stroke-width:2.16378546;stroke-miterlimit:4;stroke-dasharray:none;fill-opacity:1"
       d="m 547.83695,523.63589 c -7.13333,-9.07956 -25.18436,-18.04718 -47.93083,-23.81168 l -6.07142,-1.53865 -83.03572,-0.44281 c -112.71091,-0.60106 -188.20392,-0.18715 -201.42857,1.10441 -12.27513,1.19882 -24.83944,4.53831 -37.85714,10.06214 -7.03304,2.98434 -17.82878,8.66313 -22.43582,11.80171 -0.84862,0.57814 -1.58524,0.99549 -1.63693,0.92744 -0.15104,-0.19882 -2.01851,-96.11578 -1.87416,-96.26014 0.072,-0.072 1.23867,0.54345 2.59251,1.36773 5.25968,3.20235 12.37965,5.968 19.24725,7.47633 3.52866,0.77499 4.09323,0.78756 47.14286,1.04971 23.96429,0.14592 102.07143,0.46898 173.57143,0.71791 98.89156,0.34429 131.58625,0.35351 136.62889,0.0385 13.90643,-0.86859 23.78907,-3.34652 29.9014,-7.49733 1.29853,-0.88181 2.22635,-1.31658 2.23575,-1.04763 0.0557,1.59609 -6.97122,97.6563 -7.16011,97.88095 -0.12875,0.15309 -0.97897,-0.66979 -1.88939,-1.82864 z"
       id="path3413"
       inkscape:connector-curvature="0" />
    <path
       style="opacity:0;fill:none;stroke-width:2.16378546;stroke-miterlimit:4;stroke-dasharray:none;fill-opacity:1"
       d="m 547.83695,523.63589 c -7.13333,-9.07956 -25.18436,-18.04718 -47.93083,-23.81168 l -6.07142,-1.53865 -83.03572,-0.44281 c -112.71091,-0.60106 -188.20392,-0.18715 -201.42857,1.10441 -12.27513,1.19882 -24.83944,4.53831 -37.85714,10.06214 -7.03304,2.98434 -17.82878,8.66313 -22.43582,11.80171 -0.84862,0.57814 -1.58524,0.99549 -1.63693,0.92744 -0.15104,-0.19882 -2.01851,-96.11578 -1.87416,-96.26014 0.072,-0.072 1.23867,0.54345 2.59251,1.36773 5.25968,3.20235 12.37965,5.968 19.24725,7.47633 3.52866,0.77499 4.09323,0.78756 47.14286,1.04971 23.96429,0.14592 102.07143,0.46898 173.57143,0.71791 98.89156,0.34429 131.58625,0.35351 136.62889,0.0385 13.66675,-0.85362 23.37186,-3.23786 29.54247,-7.25766 1.23353,-0.80357 2.33635,-1.36746 2.45075,-1.25308 0.26653,0.26655 -6.7039,97.47532 -7.01618,97.84673 -0.12875,0.15309 -0.97897,-0.66979 -1.88939,-1.82864 z"
       id="path3415"
       inkscape:connector-curvature="0" />
    <path
       style="opacity:0;fill:none;fill-opacity:1;stroke-width:2.16378546;stroke-miterlimit:4;stroke-dasharray:none"
       d="m 547.83695,523.63589 c -7.13333,-9.07956 -25.18436,-18.04718 -47.93083,-23.81168 l -6.07142,-1.53865 -83.03572,-0.44281 c -112.71091,-0.60106 -188.20392,-0.18715 -201.42857,1.10441 -12.27513,1.19882 -24.83944,4.53831 -37.85714,10.06214 -7.03304,2.98434 -17.82878,8.66313 -22.43582,11.80171 -0.84862,0.57814 -1.58524,0.99549 -1.63693,0.92744 -0.15104,-0.19882 -2.01851,-96.11578 -1.87416,-96.26014 0.072,-0.072 1.23867,0.54345 2.59251,1.36773 5.25968,3.20235 12.37965,5.968 19.24725,7.47633 3.52866,0.77499 4.09323,0.78756 47.14286,1.04971 23.96429,0.14592 102.07143,0.46898 173.57143,0.71791 98.89156,0.34429 131.58625,0.35351 136.62889,0.0385 13.66675,-0.85362 23.37186,-3.23786 29.54247,-7.25766 1.23353,-0.80357 2.33635,-1.36746 2.45075,-1.25308 0.26653,0.26655 -6.7039,97.47532 -7.01618,97.84673 -0.12875,0.15309 -0.97897,-0.66979 -1.88939,-1.82864 z"
       id="path3417"
       inkscape:connector-curvature="0" />
    <path
       style="opacity:0;fill:none;fill-opacity:1;stroke-width:2.16378546;stroke-miterlimit:4;stroke-dasharray:none"
       d="m 545.62041,521.48467 c -2.22007,-2.25477 -5.00454,-4.63998 -6.82496,-5.84637 -8.27011,-5.48052 -19.93954,-10.48092 -33.51897,-14.36301 -11.63872,-3.32727 -3.31467,-2.99154 -84.4775,-3.40723 -115.64951,-0.59233 -186.39661,-0.34878 -205.59524,0.70775 -14.00008,0.77046 -26.09455,3.44934 -39.7619,8.80712 -6.56505,2.57359 -17.40659,7.93836 -23.21429,11.48725 l -4.64286,2.83709 -0.12115,-1.29626 c -0.18865,-2.01832 -2.03836,-95.04643 -1.88985,-95.04634 0.0725,4e-5 1.06335,0.56593 2.20185,1.25753 5.51479,3.35006 12.79006,6.21905 19.56733,7.71635 3.38786,0.74848 4.33413,0.76892 47.9204,1.0351 82.61094,0.5045 294.04207,1.16575 303.03571,0.94774 18.17972,-0.44068 29.71986,-2.93882 36.68214,-7.94073 0.9794,-0.7036 1.83179,-1.22806 1.89422,-1.16546 0.0625,0.0626 -1.47711,22.05133 -3.42125,48.86383 -1.94414,26.8125 -3.53775,48.87053 -3.54139,49.01786 -0.015,0.60904 -0.72115,0.0147 -4.29229,-3.61222 z"
       id="path4219"
       inkscape:connector-curvature="0" />
    <path
       style="opacity:0;fill:none;fill-opacity:1;stroke-width:2.16378546;stroke-miterlimit:4;stroke-dasharray:none"
       d="m 545.62041,521.48467 c -2.22007,-2.25477 -5.00454,-4.63998 -6.82496,-5.84637 -8.27011,-5.48052 -19.93954,-10.48092 -33.51897,-14.36301 -11.63872,-3.32727 -3.31467,-2.99154 -84.4775,-3.40723 -115.64951,-0.59233 -186.39661,-0.34878 -205.59524,0.70775 -14.00008,0.77046 -26.09455,3.44934 -39.7619,8.80712 -6.56505,2.57359 -17.40659,7.93836 -23.21429,11.48725 l -4.64286,2.83709 -0.12115,-1.29626 c -0.18865,-2.01832 -2.03836,-95.04643 -1.88985,-95.04634 0.0725,4e-5 1.06335,0.56593 2.20185,1.25753 5.51479,3.35006 12.79006,6.21905 19.56733,7.71635 3.38786,0.74848 4.33413,0.76892 47.9204,1.0351 82.61094,0.5045 294.04207,1.16575 303.03571,0.94774 18.17972,-0.44068 29.71986,-2.93882 36.68214,-7.94073 0.9794,-0.7036 1.83179,-1.22806 1.89422,-1.16546 0.0625,0.0626 -1.47711,22.05133 -3.42125,48.86383 -1.94414,26.8125 -3.53775,48.87053 -3.54139,49.01786 -0.015,0.60904 -0.72115,0.0147 -4.29229,-3.61222 z"
       id="path4221"
       inkscape:connector-curvature="0" />
    <path
       style="opacity:0;fill:none;fill-opacity:1;stroke-width:2.16378546;stroke-miterlimit:4;stroke-dasharray:none"
       d="m 545.26327,514.69896 c -2.22007,-2.25478 -5.00454,-4.63998 -6.82497,-5.84637 -8.2701,-5.48053 -19.93953,-10.48092 -33.51896,-14.36301 -11.63872,-3.32728 -3.31468,-2.99154 -84.4775,-3.40724 -115.64951,-0.59233 -186.39661,-0.34878 -205.59524,0.70776 -14.00009,0.77045 -26.09455,3.44933 -39.76191,8.80712 -6.56504,2.57358 -17.40659,7.93836 -23.21428,11.48724 l -4.64286,2.8371 -0.12116,-1.29627 c -0.18864,-2.01831 -2.03836,-95.04642 -1.88984,-95.04634 0.0725,4e-5 1.06335,0.56593 2.20185,1.25754 5.51479,3.35005 12.79006,6.21905 19.56733,7.71635 3.38786,0.74848 4.33412,0.76892 47.92039,1.03509 82.61095,0.5045 294.04208,1.16575 303.03572,0.94775 18.17971,-0.44068 29.71986,-2.93882 36.68214,-7.94073 0.97939,-0.70361 1.83179,-1.22807 1.89422,-1.16546 0.0625,0.0626 -1.47711,22.05132 -3.42125,48.86382 -1.94415,26.8125 -3.53775,48.87054 -3.5414,49.01786 -0.015,0.60904 -0.72114,0.0148 -4.29228,-3.61221 z"
       id="path4224"
       inkscape:connector-curvature="0" />
    <path
       style="opacity:0;fill:none;fill-opacity:1;stroke:#000000;stroke-width:0.77277994;stroke-opacity:1;stroke-miterlimit:4;stroke-dasharray:none"
       d="m 545.26327,514.69896 c -2.22007,-2.25478 -5.00454,-4.63998 -6.82497,-5.84637 -8.2701,-5.48053 -19.93953,-10.48092 -33.51896,-14.36301 -11.63872,-3.32728 -3.31468,-2.99154 -84.4775,-3.40724 -115.64951,-0.59233 -186.39661,-0.34878 -205.59524,0.70776 -14.00009,0.77045 -26.09455,3.44933 -39.76191,8.80712 -6.56504,2.57358 -17.40659,7.93836 -23.21428,11.48724 l -4.64286,2.8371 -0.12116,-1.29627 c -0.18864,-2.01831 -2.03836,-95.04642 -1.88984,-95.04634 0.0725,4e-5 1.06335,0.56593 2.20185,1.25754 5.51479,3.35005 12.79006,6.21905 19.56733,7.71635 3.38786,0.74848 4.33412,0.76892 47.92039,1.03509 82.61095,0.5045 294.04208,1.16575 303.03572,0.94775 18.17971,-0.44068 29.71986,-2.93882 36.68214,-7.94073 0.97939,-0.70361 1.83179,-1.22807 1.89422,-1.16546 0.0625,0.0626 -1.47711,22.05132 -3.42125,48.86382 -1.94415,26.8125 -3.53775,48.87054 -3.5414,49.01786 -0.015,0.60904 -0.72114,0.0148 -4.29228,-3.61221 z"
       id="path5993"
       inkscape:connector-curvature="0" />
    <path
       style="opacity:0;fill:none;fill-opacity:1;stroke:#000000;stroke-width:0.77277994;stroke-opacity:1;stroke-miterlimit:4;stroke-dasharray:none"
       d="m 545.26327,514.69896 c -2.22007,-2.25478 -5.00454,-4.63998 -6.82497,-5.84637 -8.2701,-5.48053 -19.93953,-10.48092 -33.51896,-14.36301 -11.63872,-3.32728 -3.31468,-2.99154 -84.4775,-3.40724 -115.64951,-0.59233 -186.39661,-0.34878 -205.59524,0.70776 -14.00009,0.77045 -26.09455,3.44933 -39.76191,8.80712 -6.56504,2.57358 -17.40659,7.93836 -23.21428,11.48724 l -4.64286,2.8371 -0.12116,-1.29627 c -0.18864,-2.01831 -2.03836,-95.04642 -1.88984,-95.04634 0.0725,4e-5 1.06335,0.56593 2.20185,1.25754 5.51479,3.35005 12.79006,6.21905 19.56733,7.71635 3.38786,0.74848 4.33412,0.76892 47.92039,1.03509 82.61095,0.5045 294.04208,1.16575 303.03572,0.94775 18.17971,-0.44068 29.71986,-2.93882 36.68214,-7.94073 0.97939,-0.70361 1.83179,-1.22807 1.89422,-1.16546 0.0625,0.0626 -1.47711,22.05132 -3.42125,48.86382 -1.94415,26.8125 -3.53775,48.87054 -3.5414,49.01786 -0.015,0.60904 -0.72114,0.0148 -4.29228,-3.61221 z"
       id="path5995"
       inkscape:connector-curvature="0" />
    <path
       id="path6011"
       style="fill:none;fill-opacity:1;fill-rule:evenodd;stroke:#000000;stroke-width:2.16378546;stroke-linecap:butt;stroke-linejoin:miter;stroke-miterlimit:4;stroke-dasharray:none;stroke-opacity:1"
       d="m 542.67857,410.57649 -7.14285,101.25 m -405.35715,-103.03572 1.78572,99.10715 m 410.89286,-97.67858 c 0,0 -6.42857,10 -38.57143,10.35714 -32.14285,0.35715 -342.85714,-1.07143 -342.85714,-1.07143 0,0 -15.17857,0.44644 -31.25,-10.62499 m 1.60714,98.83928 c 0,0 29.72676,-20.43057 65.35714,-23.92857 32.12048,-3.15342 190.02518,-2.21518 282.90048,2.16822 20.56667,0.97068 45.31382,6.76035 55.67096,26.76035"
       inkscape:connector-curvature="0"
       sodipodi:nodetypes="cccccscccssc" />
    <path
       style="opacity:0;fill:none;fill-opacity:1;fill-rule:evenodd;stroke:#000000;stroke-width:0.54643804;stroke-opacity:1;stroke-miterlimit:4;stroke-dasharray:none"
       d="m 533.61582,508.69443 c -1.48591,-1.926 -5.29625,-5.48384 -7.79999,-7.2831 -4.71082,-3.38534 -11.86493,-7.18746 -18.76697,-9.9739 -6.31277,-2.54856 -16.00784,-5.63753 -23.54941,-7.50316 l -3.53553,-0.87462 -25.63262,-0.23191 c -106.71671,-0.9655 -227.47617,-0.84229 -251.65426,0.25676 -13.40945,0.60955 -22.49067,2.25943 -34.73565,6.31078 -10.5419,3.48787 -24.09171,9.93698 -33.01749,15.71487 -1.29017,0.83516 -2.38053,1.47552 -2.42302,1.42303 -0.13094,-0.16174 -1.69459,-96.24672 -1.56834,-96.37297 0.0652,-0.0652 1.08187,0.46324 2.2592,1.17439 4.91014,2.96586 11.01994,5.51689 16.66865,6.95968 6.6185,1.69049 3.57381,1.60657 68.60029,1.89067 133.96931,0.58529 211.84379,0.80327 252.15933,0.70581 38.05666,-0.092 43.03449,-0.149 45.96194,-0.52635 7.43083,-0.95783 12.91545,-2.20933 17.4641,-3.98501 2.5579,-0.99854 6.25812,-3.04775 7.34214,-4.06613 0.31451,-0.29548 0.61435,-0.48943 0.66627,-0.43101 0.0639,0.0719 -6.73921,96.80137 -6.90331,98.15415 -0.0415,0.34185 -0.63968,-0.18103 -1.53533,-1.34198 z"
       id="path6014"
       inkscape:connector-curvature="0" />
    <path
       style="opacity:0;fill:none;fill-opacity:1;fill-rule:evenodd;stroke:#000000;stroke-width:0.54643804;stroke-opacity:1;stroke-miterlimit:4;stroke-dasharray:none"
       d="m 133.24451,579.98947 c -0.43692,-12.7958 -1.95691,-77.66182 -2.41292,-102.97242 -0.28152,-15.6258 -0.67936,-37.33145 -0.88409,-48.23478 -0.34285,-18.25913 -0.33989,-19.8484 0.0375,-20.13014 0.26624,-0.19878 0.55998,-0.22545 0.83893,-0.0762 0.25211,0.13492 33.45691,0.34007 80.46165,0.49711 44.01782,0.14706 113.10227,0.37824 153.521,0.51373 40.41873,0.13548 97.01252,0.31716 125.76399,0.40372 38.71263,0.11655 52.35217,0.23235 52.57134,0.44632 0.22602,0.22066 -0.0875,5.57005 -1.32673,22.63856 -2.36255,32.53996 -5.8131,80.37212 -8.4349,116.92516 -1.26024,17.57034 -2.35017,32.31541 -2.42204,32.76682 -0.0958,0.60147 -0.26262,0.82075 -0.62435,0.82075 -0.34373,0 -0.49346,-0.17255 -0.49306,-0.56821 0,-0.31251 1.13178,-16.18952 2.51432,-35.28223 1.38255,-19.09272 2.45253,-34.77534 2.37775,-34.85027 -0.0748,-0.0749 -6.519,-0.21548 -14.32045,-0.31232 -7.80149,-0.0969 -28.67389,-0.35343 -46.38313,-0.57017 -17.70924,-0.21674 -41.0627,-0.50735 -51.89659,-0.6458 -10.83388,-0.13845 -38.22164,-0.474 -60.86169,-0.74565 -22.64004,-0.27166 -45.7094,-0.56037 -51.26524,-0.64157 -5.55584,-0.0812 -37.48928,-0.48025 -70.96321,-0.8868 -33.47393,-0.40653 -71.06639,-0.86962 -83.5388,-1.02907 -12.47241,-0.15946 -22.73601,-0.23101 -22.80801,-0.15901 -0.10358,0.10359 1.41098,65.09384 1.73892,74.61782 0.0778,2.2587 0.0622,2.33597 -0.47185,2.33597 -0.54316,0 -0.55504,-0.0804 -0.71829,-4.86136 z"
       id="path6016"
       inkscape:connector-curvature="0" />
    <path
       style="opacity:0;fill:none;fill-opacity:1;fill-rule:evenodd;stroke:#000000;stroke-width:0.54643804;stroke-opacity:1;stroke-miterlimit:4;stroke-dasharray:none"
       d="m 533.61582,508.69443 c -1.48591,-1.926 -5.29625,-5.48384 -7.79999,-7.2831 -4.71082,-3.38534 -11.86493,-7.18746 -18.76697,-9.9739 -6.31277,-2.54856 -16.00784,-5.63753 -23.54941,-7.50316 l -3.53553,-0.87462 -25.63262,-0.23191 c -106.71671,-0.9655 -227.47617,-0.84229 -251.65426,0.25676 -13.40945,0.60955 -22.49067,2.25943 -34.73565,6.31078 -10.5419,3.48787 -24.09171,9.93698 -33.01749,15.71487 -1.29017,0.83516 -2.38053,1.47552 -2.42302,1.42303 -0.13094,-0.16174 -1.69459,-96.24672 -1.56834,-96.37297 0.0652,-0.0652 1.08187,0.46324 2.2592,1.17439 4.91014,2.96586 11.01994,5.51689 16.66865,6.95968 6.6185,1.69049 3.57381,1.60657 68.60029,1.89067 133.96931,0.58529 211.84379,0.80327 252.15933,0.70581 38.05666,-0.092 43.03449,-0.149 45.96194,-0.52635 7.43083,-0.95783 12.91545,-2.20933 17.4641,-3.98501 2.5579,-0.99854 6.25812,-3.04775 7.34214,-4.06613 0.31451,-0.29548 0.61435,-0.48943 0.66627,-0.43101 0.0639,0.0719 -6.73921,96.80137 -6.90331,98.15415 -0.0415,0.34185 -0.63968,-0.18103 -1.53533,-1.34198 z"
       id="path6018"
       inkscape:connector-curvature="0" />
    <path
       style="opacity:0;fill:none;fill-opacity:1;fill-rule:evenodd;stroke:#000000;stroke-width:0.54643804;stroke-miterlimit:4;stroke-dasharray:none;stroke-opacity:1"
       d="m 133.25173,582.26232 c -0.002,-1.42369 -0.40183,-17.98703 -0.88923,-36.80744 -1.28631,-49.6699 -2.87162,-136.26847 -2.50011,-136.57096 0.12962,-0.10554 13.2477,-0.10692 29.15129,-0.003 24.89153,0.16255 115.68731,0.46909 333.35034,1.12543 27.70974,0.0836 50.5345,0.23353 50.7217,0.33328 0.28123,0.14988 0.0931,3.59701 -1.08397,19.8555 -0.78335,10.82078 -2.44025,33.76577 -3.68198,50.98887 -4.74284,65.78411 -7.31696,101.28618 -7.37916,101.77287 -0.0403,0.3152 -0.25438,0.50507 -0.5696,0.50507 -0.42879,0 -0.49793,-0.15256 -0.45768,-1.01015 0.0261,-0.55558 1.15668,-16.43341 2.51248,-35.28406 1.3558,-18.85066 2.41406,-34.31683 2.35171,-34.36928 -0.0624,-0.0524 -16.53466,-0.28758 -36.60513,-0.52252 -20.07046,-0.23494 -44.73081,-0.5354 -54.80077,-0.6677 -10.06996,-0.1323 -27.74132,-0.35653 -39.26968,-0.49828 -11.52837,-0.14175 -43.85956,-0.53909 -71.8471,-0.88296 -27.98754,-0.34388 -60.14827,-0.74181 -71.46829,-0.88428 -11.32003,-0.14247 -38.70779,-0.48122 -60.86169,-0.75278 -22.15391,-0.27155 -46.3927,-0.5712 -53.86398,-0.66587 l -13.58414,-0.17214 0.14775,3.63609 c 0.0813,1.99986 0.47936,17.44362 0.88466,34.31948 0.4053,16.87586 0.80921,32.58689 0.89758,34.9134 l 0.16066,4.23001 -0.6563,0 -0.6563,0 -0.003,-2.58851 z"
       id="path6022"
       inkscape:connector-curvature="0" />
  </g>
</svg>
