<?xml version="1.0" encoding="utf-8"?>
<!-- Generator: Adobe Illustrator 18.0.0, SVG Export Plug-In . SVG Version: 6.00 Build 0)  -->
<!DOCTYPE svg PUBLIC "-//W3C//DTD SVG 1.1//EN" "http://www.w3.org/Graphics/SVG/1.1/DTD/svg11.dtd">
<svg version="1.1" id="Fluttershy" xmlns="http://www.w3.org/2000/svg" xmlns:xlink="http://www.w3.org/1999/xlink" x="0px" y="0px"
	 viewBox="0 0 2333.5 2333.5" enable-background="new 0 0 2333.5 2333.5" xml:space="preserve">
<defs>
	<rect id="SVGID_1_" x="0" y="0" width="2333.5" height="2333.5"/>
</defs>
<clipPath id="SVGID_2_">
	<use xlink:href="#SVGID_1_"  overflow="visible"/>
</clipPath>
<g id="Tail" clip-path="url(#SVGID_2_)">
	<path fill="#F3B6CF" stroke="#EB81B4" stroke-width="36" stroke-miterlimit="8" d="M399.4,2076.4c0,0-540,140-540,920
		s480,740,460,940s-373.3,6.7-606.7,6.7s-413.3,173.3-413.3,293.3c0,140,145,193.3,253.3,163.3c-231.7-38.3-193.3-295,120-316.7
		c372.9-25.8,343.3,233.3,840,160l103.3-690.2c0,0-126.7-273.4-120-556.7c6.7-283.3,163.3-416.7,163.3-416.7"/>
	<path fill="none" stroke="#EB81B4" stroke-width="18" d="M562.8,2379.5c0,0-436.7,170-406.7,566.7c30,396.7,360,743.3,380,1046.7"
		/>
	<path fill="none" stroke="#EB81B4" stroke-width="18" d="M-97.6,2672.3c0,0-2.9,550.5,347.1,890.5s243.3,630,60,686.7"/>
</g>
<g id="Back_Body" clip-path="url(#SVGID_2_)">
	<path fill="#FEE78F" stroke="#EAD463" stroke-width="40" d="M1009.4,3271.4l-126.7,1410c0,0-290,43.3-350-43.3
		s-73.3-563.3,20-896.7c93.3-333.3,116.7-493.4,253.3-486.7"/>
	<g>
		<path fill="#FEE78F" d="M809.4,3352.1c2.5-250-82.5-197.5-107.5-595c-28.3-450.1,320-697.3,320-697.3l464.2-18.3l-440,1313.3"/>
		<path fill="#EAD463" d="M809.4,3352.1c-1-3.7-1.9-7.3-2.7-11c-0.9-3.7-1.6-7.3-2.4-10.9c-0.8-3.6-1.6-7.3-2.2-10.9
			c-0.8-3.6-1.5-7.2-2.2-10.8c-2.9-14.4-5.6-28.6-8.4-42.7c-1.4-7-2.9-14-4.4-20.9c-1.5-6.9-3.1-13.8-4.8-20.7
			c-3.3-13.7-7-27.3-11.4-40.7c-4.3-13.5-9.3-26.8-14.4-40.4c-5.1-13.6-10.4-27.3-15.4-41.3c-5-14-9.8-28.2-14.1-42.6
			c-2.2-7.2-4.2-14.4-6.2-21.7c-1.9-7.2-3.8-14.5-5.5-21.8c-3.5-14.6-6.5-29.2-9.3-43.9c-2.7-14.7-5.2-29.4-7.3-44.1
			c-2.2-14.7-4-29.5-5.8-44.2c-1.8-14.7-3.3-29.5-4.6-44.2c-1.4-14.7-2.6-29.5-3.8-44.2c-0.5-7.4-1.1-14.7-1.6-22.1l-0.7-11
			l-0.4-5.6l-0.3-5.5c-1.7-30-1.7-60-0.1-90c1.6-30,4.8-59.9,9.8-89.5c4.9-29.6,11.6-59,19.8-87.9c4.1-14.4,8.6-28.8,13.6-43
			c2.4-7.1,5-14.1,7.7-21.2c2.7-7,5.4-14,8.3-20.9c11.4-27.8,24.4-54.9,38.7-81.3c14.3-26.4,30-52,46.9-76.7
			c16.9-24.7,35-48.6,54.3-71.6c19.3-22.9,39.6-44.9,61.1-65.9c10.7-10.5,21.7-20.7,33.1-30.6c5.7-4.9,11.4-9.8,17.3-14.6
			c2.9-2.4,5.9-4.8,8.9-7.1l4.6-3.5l2.4-1.8l2.6-1.9l0,0l4.8-3.4l6-0.2l464.2-18.3l29-1.1l-9.2,27.5l-440,1313.3l-37.9-12.7
			l440-1313.3l19.8,26.3l-464.2,18.3l10.8-3.7l0,0l-1.9,1.4l-2,1.5l-4.1,3.2c-2.7,2.2-5.5,4.4-8.2,6.6c-5.5,4.5-10.9,9.1-16.2,13.8
			c-10.7,9.4-21.2,19.1-31.4,29.1c-20.4,20-39.8,41.1-58.2,63.1c-18.3,22-35.7,44.8-51.8,68.5c-16.1,23.6-31.1,48.1-44.7,73.2
			c-13.6,25.1-25.9,51-36.8,77.4c-10.9,26.4-20.3,53.4-28.2,80.8c-7.9,27.4-14.2,55.3-19,83.4c-4.8,28.1-7.9,56.5-9.5,85
			c-1.6,28.5-1.6,57.2,0,85.6l0.3,5.5l0.3,5.3l0.7,10.9c0.5,7.3,1,14.5,1.6,21.7c0.6,7.2,1.2,14.5,1.8,21.7l1,10.8l1.1,10.8
			c3,28.8,6.6,57.5,11.3,86c2.3,14.2,4.9,28.4,7.7,42.5c2.8,14.1,5.9,28.1,9.3,42c3.4,13.9,7.1,27.7,11,41.4
			c4,13.7,8.3,27.4,12.8,41c4.5,13.7,9.3,27.5,13.9,41.5c4.7,14,9.1,28.4,13,43.1c1.9,7.3,3.7,14.8,5.3,22.2
			c1.6,7.4,3,14.9,4.1,22.5c2.2,15.1,3.4,30.2,3.6,45.3c0.1,15.1-0.7,30.1-2.4,45c-0.9,7.4-2,14.9-3.4,22.2
			c-0.7,3.7-1.4,7.4-2.3,11.1C811.4,3344.8,810.5,3348.4,809.4,3352.1z"/>
	</g>
</g>
<g id="Front_Body" clip-path="url(#SVGID_2_)">
	<path fill="#FDF6AF" stroke="#EAD463" stroke-width="36" d="M844.8,2754.8c0,303.8,217.1,550,485,550s485-246.3,485-550
		s-217.1-550-485-550S844.8,2451,844.8,2754.8z"/>
	<g>
		<path fill="#FDF6AF" d="M1064.8,3014.8c0,0-245,1490-260,1600s-45,225,255,225s300-20,300-215s16.3-1444.4,16.3-1444.4"/>
		<path fill="#EAD463" d="M1064.8,3014.8c0,0-0.2,15.6-2.1,44.6c-1.9,29-5.5,71.4-12,125c-3.3,26.8-7.3,56.4-12.1,88.6
			c-5,32.1-10.4,66.9-16.1,104c-11.6,74.3-24.7,158-39.2,249.4c-14.6,91.3-30.4,190.3-47.4,294.9c-17.1,104.6-35.2,214.9-53.9,329
			c-9.3,57-18.8,115-28.4,173.8c-4.8,29.4-9.5,58.9-14.3,88.6c-2.4,14.8-4.7,29.7-7.1,44.6c-1.2,7.5-2.4,14.9-3.5,22.4
			c-1.1,7.4-2.3,14.9-3.4,22.3c-1.1,7.5-2.3,14.8-3.3,22.5c-1.1,7.5-2.1,15-3.2,22.5c-2,14.9-3.8,29.5-4.3,43.7
			c-0.5,14.2,0.2,28.1,3.3,40.8c3,12.7,8.4,24.1,16.4,33.8c8,9.7,18.5,17.8,30.4,24.3c12,6.5,25.3,11.6,39.2,15.6
			c13.9,4,28.3,7,43,9.3c14.7,2.3,29.5,3.9,44.5,5c15,1.1,30.1,1.8,45.2,2.1c7.6,0.2,15.1,0.2,22.7,0.2c7.7,0,15.4,0,23-0.1
			c30.7-0.2,61.3-0.6,91.6-1.9c15.1-0.7,30.2-1.6,45-3c14.8-1.4,29.4-3.3,43.4-6.2c13.9-2.9,27.3-6.9,38.4-12.8
			c5.5-2.9,10.5-6.4,14.6-10.3c4.2-4,7.7-8.4,10.6-13.6c5.8-10.3,9.3-23.1,11.4-36.8c2.1-13.7,3-28.2,3.6-42.9
			c0.5-14.7,0.6-29.5,0.7-44.4c0-7.5,0-14.9,0-22.3c0-7.5,0.1-15,0.1-22.4c0.1-29.7,0.3-59.3,0.4-88.7c0.2-29.4,0.5-58.5,0.7-87.5
			c1.1-115.7,2.2-227.4,3.2-333.5c1.1-106,2.2-206.2,3.2-298.7c4.3-370,7.1-616.6,7.1-616.6l40,0.5c0,0-3.3,246.6-8.4,616.6
			c-1.2,92.5-2.5,192.7-3.8,298.7c-1.2,106-2.5,217.7-3.9,333.3c-0.3,28.9-0.6,58-0.9,87.4c-0.2,29.4-0.4,58.9-0.6,88.7
			c0,7.4-0.1,14.8-0.1,22.3c0,7.5,0,15-0.1,22.5c-0.1,15-0.2,30.2-0.8,45.6c-0.6,15.4-1.6,31.1-4.1,47.2c-1.3,8.1-3,16.3-5.5,24.6
			c-2.5,8.3-5.8,16.7-10.4,24.7c-4.6,8.1-10.5,15.7-17.4,22.1c-3.4,3.2-7.1,6.2-10.9,8.8c-3.8,2.6-7.7,5-11.7,7.1
			c-7.9,4.2-16,7.4-24.1,10c-8.1,2.6-16.1,4.6-24.1,6.2c-16,3.3-31.8,5.2-47.4,6.7c-15.7,1.4-31.3,2.4-46.8,3
			c-31.1,1.3-62.1,1.6-93,1.7c-7.7,0-15.5,0-23.2,0c-7.8,0-15.7-0.1-23.5-0.3c-15.7-0.4-31.4-1.1-47.2-2.3
			c-15.8-1.2-31.5-2.9-47.3-5.4c-15.8-2.5-31.6-5.8-47.3-10.3c-15.7-4.6-31.4-10.4-46.4-18.6c-7.5-4.1-14.9-8.8-21.8-14.3
			c-6.9-5.5-13.4-11.8-19.2-18.8c-5.7-7-10.7-14.8-14.6-22.9c-4-8.2-6.9-16.7-8.9-25.2c-4.1-17.1-4.9-34.2-4.4-50.4
			c0.6-16.3,2.4-32,4.5-47.3c1.1-7.6,2.1-15.1,3.2-22.7c1-7.4,2.2-15.1,3.3-22.6c1.1-7.6,2.2-15.1,3.4-22.7c1.2-7.5,2.3-15,3.5-22.4
			c2.3-14.9,4.7-29.9,7-44.7c4.7-29.7,9.4-59.3,14-88.7c9.4-58.8,18.6-116.8,27.7-173.9c18.2-114.2,36.1-224.5,53.2-329.1
			c17.1-104.6,33.6-203.4,48.9-294.7c15.4-91.2,29.6-174.8,42.4-248.9c6.4-37,12.4-71.7,17.9-103.7c5.7-32,11.3-61.4,16.8-87.8
			c10.9-52.9,21.1-94.2,28.6-122.2c3.7-14,6.8-24.8,8.9-32C1063.6,3018.5,1064.8,3014.8,1064.8,3014.8z"/>
	</g>
	<g>
		<path fill="#FDF6AF" d="M1691.1,3016.4c0,0,245,1490,260,1600s45,225-255,225s-300-20-300-215s-20.1-1446-20.1-1446"/>
		<path fill="#EAD463" d="M1691.1,3016.4c0,0,1.2,3.7,3.3,10.9c2.2,7.2,5.2,18,8.9,32c7.5,28.1,17.6,69.4,28.6,122.3
			c5.5,26.5,11.1,55.8,16.8,87.8c5.5,32.1,11.5,66.7,17.9,103.8c12.8,74.1,27,157.7,42.4,249c15.3,91.3,31.8,190.2,48.9,294.8
			c17,104.7,35,215,53.2,329.3c9.1,57.1,18.4,115.2,27.7,174c4.6,29.4,9.3,59,14,88.7c2.3,14.9,4.6,29.8,7,44.8
			c1.2,7.5,2.3,15,3.5,22.5c1.1,7.6,2.2,15.1,3.4,22.7c1.1,7.6,2.3,15.2,3.3,22.6c1.1,7.6,2.1,15.1,3.2,22.7
			c2,15.3,3.9,31.1,4.4,47.4c0.5,16.3-0.3,33.3-4.6,50.5c-2.1,8.5-5.1,17.1-9.1,25.2c-4,8.1-9,15.9-14.8,22.8
			c-5.8,7-12.4,13.2-19.3,18.6c-7,5.4-14.3,10.1-21.9,14.2c-15.1,8.1-30.8,13.9-46.5,18.4c-15.7,4.5-31.6,7.7-47.4,10.2
			c-15.8,2.5-31.6,4.2-47.4,5.4c-15.8,1.2-31.5,1.9-47.2,2.2c-7.8,0.2-15.7,0.3-23.5,0.3c-7.7,0-15.5,0-23.2,0
			c-30.9-0.1-61.9-0.4-93-1.7c-15.6-0.7-31.2-1.6-46.9-3.1c-15.7-1.5-31.5-3.5-47.5-6.8c-8-1.7-16-3.7-24.1-6.4
			c-8.1-2.6-16.1-5.9-24.1-10.2c-7.9-4.3-15.6-9.6-22.4-16.2c-6.8-6.5-12.6-14.3-17.1-22.4c-4.5-8.1-7.7-16.5-10.1-24.8
			c-2.4-8.3-4.1-16.5-5.3-24.6c-2.4-16.1-3.4-31.8-4-47.2c-0.6-15.4-0.7-30.6-0.7-45.6c0-7.5,0-15,0-22.5
			c-0.1-7.4-0.1-14.9-0.2-22.3c-0.2-29.8-0.5-59.3-0.7-88.7c-0.4-29.3-0.7-58.5-1.1-87.4c-1.4-115.5-3.2-227.4-4.7-333.4
			c-1.7-106-3.2-206.3-4.7-298.8c-6.1-370.1-10.2-616.8-10.2-616.8l40-0.6c0,0,3.6,246.8,8.9,616.9c1.3,92.5,2.6,192.8,4.1,298.8
			c1.3,106,2.9,217.8,4,333.6c0.3,28.9,0.6,58.1,0.9,87.5c0.2,29.4,0.4,59,0.6,88.7c0,7.5,0.1,15,0.1,22.5c0,7.4,0,14.9,0,22.4
			c0,14.9,0.1,29.7,0.6,44.4c0.5,14.7,1.4,29.2,3.5,43c2.1,13.7,5.4,26.7,11.2,37.1c2.9,5.2,6.3,9.8,10.4,13.7
			c4.1,4,9,7.5,14.5,10.4c11,6,24.3,10,38.2,13c13.9,3,28.6,4.9,43.4,6.3c14.8,1.4,29.9,2.3,45,3c30.3,1.3,60.9,1.7,91.6,1.9
			c7.7,0,15.4,0,23.1,0.1c7.6,0,15.2-0.1,22.7-0.2c15.1-0.3,30.2-0.9,45.2-2.1c15-1.1,29.9-2.7,44.6-5c14.7-2.3,29.1-5.2,43-9.2
			c13.9-4,27.3-9,39.3-15.5c12-6.5,22.6-14.5,30.7-24.2c8.1-9.7,13.6-21,16.7-33.7c3.1-12.7,3.9-26.5,3.4-40.7
			c-0.5-14.2-2.2-28.9-4.2-43.7c-1.1-7.5-2.1-15-3.2-22.5c-1-7.7-2.2-15-3.3-22.5c-1.1-7.4-2.2-14.9-3.4-22.3
			c-1.2-7.5-2.4-14.9-3.5-22.4c-2.4-14.9-4.7-29.8-7.1-44.6c-4.8-29.7-9.6-59.2-14.3-88.6c-9.6-58.7-19.1-116.8-28.4-173.8
			c-18.7-114.1-36.8-224.5-53.9-329.1c-17-104.7-32.9-203.6-47.4-295c-14.5-91.4-27.7-175.2-39.2-249.5
			c-5.8-37.2-11.2-71.9-16.1-104.1c-4.9-32.2-8.9-61.8-12.2-88.6c-6.6-53.6-10.2-96-12-125C1691.3,3032,1691.1,3016.4,1691.1,3016.4
			z"/>
	</g>
	<polygon fill="#FDF6AF" points="1082.8,2081.4 1076.1,2396.4 1592.8,2378.1 1564.4,2069.8 	"/>
	<g>
		<line fill="#FDF6AF" x1="1079.8" y1="2109.8" x2="1074.8" y2="2484.8"/>
		<path fill="#EAD463" d="M1099.8,2110c0,0,0.1,1.5,0.1,4.2c0,1.4,0.1,3.1,0.1,5.1c0,2,0,4.3,0.1,6.8c0.1,5.1,0,11.4,0,18.5
			c-0.1,7.1-0.2,15.2-0.4,24c-0.2,8.8-0.5,18.3-0.9,28.4c-0.4,10.1-0.9,20.7-1.6,31.7c-0.6,11-1.4,22.3-2.2,33.9
			c-0.8,11.5-1.6,23.2-2.5,34.9c-0.9,11.7-1.8,23.4-2.7,34.9c-0.5,5.8-0.9,11.5-1.4,17.1c-0.5,5.6-1,11.2-1.5,16.7
			c-1,11-1.9,21.6-2.9,31.6c-1,10.1-1.9,19.6-2.8,28.3c-0.9,8.8-1.8,16.8-2.5,24c-0.8,7.1-1.5,13.3-2.1,18.5
			c-0.6,5.1-1.1,9.1-1.4,11.9c-0.4,2.7-0.5,4.2-0.5,4.2s-0.1-1.5-0.4-4.2c-0.3-2.8-0.6-6.8-1.1-11.9c-0.4-5.1-1-11.4-1.6-18.5
			c-0.6-7.1-1.2-15.2-1.9-24c-0.6-8.8-1.3-18.3-2-28.4c-0.7-10.1-1.3-20.7-2-31.7c-0.3-5.5-0.7-11.1-1-16.7
			c-0.3-5.7-0.6-11.4-0.9-17.2c-0.6-11.5-1.2-23.3-1.8-35c-0.6-11.7-1.1-23.5-1.6-35c-0.5-11.5-0.9-22.9-1.3-33.9
			c-0.3-11-0.6-21.6-0.7-31.7c-0.2-10.1-0.2-19.6-0.2-28.4c0-8.8,0.1-16.8,0.2-24c0.2-7.1,0.3-13.4,0.5-18.5
			c0.1-2.6,0.2-4.9,0.3-6.8c0.1-2,0.2-3.7,0.3-5.1c0.1-2.7,0.2-4.2,0.2-4.2L1099.8,2110z"/>
	</g>
	<g>
		<path fill="#FDF6AF" d="M1446.4,3137.3c0,0-73.3,50-137.5,3.3"/>
		<path fill="#EAD463" d="M1446.4,3137.3c0,0-1.9,1.3-5.4,3.3c-1.7,1-3.9,2.2-6.3,3.4c-2.5,1.3-5.3,2.6-8.5,4
			c-3.1,1.4-6.6,2.7-10.3,4.1c-3.7,1.3-7.6,2.6-11.8,3.7c-4.1,1.2-8.5,2.1-12.9,2.9c-4.4,0.7-9,1.3-13.5,1.6
			c-4.6,0.3-9.1,0.3-13.6,0.1c-2.2-0.1-4.5-0.4-6.7-0.6c-2.2-0.3-4.3-0.6-6.4-1c-2.1-0.5-4.2-0.8-6.2-1.3c-2-0.6-3.9-1.1-5.8-1.6
			c-1.9-0.6-3.7-1.3-5.4-1.9c-1.7-0.7-3.4-1.4-4.9-2c-1.6-0.6-3-1.4-4.4-2.1c-1.4-0.7-2.8-1.3-3.9-2c-1.2-0.7-2.3-1.4-3.4-2
			c-1-0.6-2-1.1-2.8-1.7c-3.3-2.2-5.2-3.5-5.2-3.5s0.2,0,0.6-0.1c0.4-0.1,1-0.2,1.7-0.2c0.7-0.1,1.6-0.2,2.5-0.3
			c1-0.1,2.1-0.2,3.3-0.3c2.4-0.2,5.2-0.5,8.2-0.7c1.5-0.1,3.1-0.3,4.7-0.4c1.6-0.2,3.2-0.2,4.9-0.5c1.7-0.2,3.3-0.3,5-0.5
			c1.7-0.2,3.4-0.4,5.1-0.5c1.7-0.2,3.4-0.4,5.1-0.5c1.7-0.2,3.5-0.4,5.2-0.5c1.7-0.2,3.5-0.4,5.2-0.5c0.9-0.1,1.7-0.2,2.6-0.3
			c0.9-0.1,1.7-0.1,2.6-0.2c3.5-0.3,7-0.5,10.6-0.8c3.6-0.2,7.2-0.4,10.9-0.5c3.7-0.2,7.4-0.2,11.2-0.3c3.7,0,7.5,0,11.2,0.2
			c3.7,0.1,7.4,0.3,10.9,0.5c3.5,0.2,6.9,0.6,9.9,0.8c3.1,0.3,5.9,0.6,8.3,1c0.6,0.1,1.2,0.2,1.7,0.2c0.6,0.1,1.1,0.2,1.6,0.2
			c1,0.1,1.8,0.3,2.5,0.4C1445.7,3137.1,1446.4,3137.3,1446.4,3137.3z"/>
	</g>
	<path fill="#FDF6AF" stroke="#EAD463" stroke-width="20" d="M1076.1,2066.4"/>
</g>
<g id="Mane" clip-path="url(#SVGID_2_)">
	<path fill="#F3B6CF" stroke="#EB81B4" stroke-width="36" stroke-miterlimit="9" d="M1549.4,2096.4c-6.7,273.3-160,626.7-170,1076.7
		s50,760,450,733.3c400-26.7,515.3-542.2,300.4-551.7c-113.8-5-97.1,111.7-72.5,150c-7.9-90.8,101.8-155,97.1-10
		c-3.3,102.5-35.8,185-125.8,195s-270-80-117.5-622.5s337.5-827.5,247.5-1900"/>
	<path fill="none" stroke="#EB81B4" stroke-width="18" d="M1379.4,3393.1c0,0,120-473.5,403.3-880.2c275.7-395.7,390-1110,390-1110"
		/>
	<path fill="none" stroke="#EB81B4" stroke-width="18" d="M2122.8,2296.2c0,0-271.3,472-360,703.3
		c-213.3,556.7-43.3,906.7-43.3,906.7"/>
</g>
<g id="Face" clip-path="url(#SVGID_2_)">
	<path fill="#FDF6AF" stroke="#EAD463" stroke-width="36" d="M676.1,1629.8c0,0,135,530,720,530c825,0,750-1000,750-1000v-459
		l-645-191.9l-1020,236L676.1,1629.8z"/>
	<path fill="#EAD463" d="M1272.8,1706.4c0,0,41.6-18.3,103.3-18.3c63.1,0,98.3,18.3,98.3,18.3s-43.3-36.7-98.3-36.7
		S1272.8,1706.4,1272.8,1706.4z"/>
	<path fill="#EAD463" d="M1262.4,1817.7c-35.8,92.5,44.2,48.3,44.2,48.3S1259,1867.7,1262.4,1817.7z"/>
	<path fill="#EAD463" d="M1432.8,1864.8c85,55,50-45,50-45S1482.8,1877.3,1432.8,1864.8z"/>
	<path fill="#EAD463" d="M1238,2039.8c0,0,45-34.4,141.9-34.4s150.6,39.4,150.6,39.4s-43.1-75-151.9-75
		C1277.4,1969.8,1238,2039.8,1238,2039.8z"/>
</g>
<g id="Right_Eye_1_" clip-path="url(#SVGID_2_)">
	<path id="White" fill="#FFFFFF" d="M2071.1,1477.3c0,237.5-105.2,382.5-235,382.5s-235-145-235-382.5s105.2-430,235-430
		S2071.1,1239.8,2071.1,1477.3z"/>
	<g id="Iris">
		<defs>
			<path id="SVGID_3_" d="M1984.6,1465.1c-9.5,135.3-86.4,240.1-171.6,234.1c-85.2-6-146.6-120.6-137.1-255.9
				c9.5-135.3,86.4-240.2,171.6-234.1S1994.2,1329.8,1984.6,1465.1z"/>
		</defs>
		<clipPath id="SVGID_4_">
			<use xlink:href="#SVGID_3_"  overflow="visible"/>
		</clipPath>
		<linearGradient id="Iris_1_" gradientUnits="userSpaceOnUse" x1="1830.3014" y1="1699.5074" x2="1830.3014" y2="1208.9845">
			<stop  offset="0" style="stop-color:#00ADA8"/>
			<stop  offset="0.5" style="stop-color:#047975"/>
			<stop  offset="1" style="stop-color:#035350"/>
		</linearGradient>
		<path id="Iris_5_" clip-path="url(#SVGID_4_)" fill="url(#Iris_1_)" d="M1984.6,1465.1c-9.5,135.3-86.4,240.1-171.6,234.1
			c-85.2-6-146.6-120.6-137.1-255.9c9.5-135.3,86.4-240.2,171.6-234.1S1994.2,1329.8,1984.6,1465.1z"/>
		<polygon id="Hilight_2_3_" clip-path="url(#SVGID_4_)" fill="#68C8C6" points="1897.8,1548.9 1969.4,1618.1 2002.8,1501.4 
			1909.4,1497.3 		"/>
		<polygon id="Hilight_1_3_" clip-path="url(#SVGID_4_)" fill="#9ED8D5" points="1890.3,1570.6 1953.6,1650.6 1996.1,1603.1 
			1908.6,1538.9 		"/>
		<path id="Pupil_3_" clip-path="url(#SVGID_4_)" d="M1944.2,1468c-7.2,102.1-63.5,181.3-125.7,177c-62.2-4.4-106.9-90.7-99.7-192.9
			c7.2-102.1,63.5-181.3,125.7-177C1906.8,1279.5,1951.4,1365.8,1944.2,1468z"/>
		<path id="Reflection_2_3_" clip-path="url(#SVGID_4_)" fill="#FFFFFF" d="M1922.1,1354.7c27.3,43.7,28.3,92.3,2.3,108.5
			c-26,16.3-69.3-6-96.5-49.7c-27.3-43.7-28.3-92.3-2.3-108.5C1851.6,1288.8,1894.8,1311,1922.1,1354.7z"/>
		<path id="Reflection_1_3_" clip-path="url(#SVGID_4_)" fill="#FFFFFF" d="M1833.6,1487.7c-7.2,7-21.2,4.4-31.4-6
			c-10.2-10.3-12.6-24.4-5.5-31.5c7.1-7,21.2-4.4,31.4,6C1838.3,1466.6,1840.7,1480.7,1833.6,1487.7z"/>
	</g>
</g>
<g id="Right_Eyelashes_1_" clip-path="url(#SVGID_2_)">
	<g id="_x3C_Path_x3E__5_">
		<path d="M1652.3,1726.7c0,0-0.7-1.3-2-3.8c-0.7-1.2-1.5-2.8-2.4-4.6c-1-1.9-2.1-4-3.2-6.5c-2.4-4.9-5.3-11-8.4-18.3
			c-3.1-7.3-6.5-15.8-10-25.4c-3.4-9.6-6.9-20.4-10.3-32.3c-1.7-5.9-3.3-12.2-4.9-18.6c-1.5-6.5-3.1-13.2-4.5-20.2
			c-5.7-28-10.2-60-12.2-95.2c-1-17.6-1.5-35.9-1.3-55c0.2-19,1.1-38.7,2.9-58.9c1.8-20.2,4.5-40.9,8.2-61.9
			c3.7-21,8.4-42.4,14.6-63.8c6.1-21.4,13.5-43,22.5-64.3c9-21.3,19.7-42.4,32.6-62.6c12.9-20.2,28-39.5,46.2-56.7
			c9.1-8.6,19-16.5,29.7-23.6c10.7-7,22.3-13.1,34.6-17.8c12.3-4.7,25.4-7.9,38.7-9.3c3.3-0.4,6.7-0.6,10-0.7l2.5-0.1c0.4,0,0,0,1,0
			l0.5,0l1.1,0l2.2,0l1.1,0l1.3,0c1.8,0.1,3.6,0.1,5.3,0.2l5,0.4l5,0.6c1.7,0.2,3.3,0.5,5,0.7c6.6,1.1,13.1,2.7,19.4,4.6
			c6.3,1.9,12.5,4.2,18.5,6.9c6,2.7,11.7,5.7,17.3,8.9c5.6,3.3,10.9,6.8,16,10.5c20.5,15,37.5,33.1,51.9,52.1
			c3.6,4.8,7,9.6,10.4,14.5c3.3,4.9,6.5,9.8,9.5,14.8c6.1,9.9,11.7,20,16.8,30.2c10.4,20.3,19,40.8,26.3,61.2
			c3.6,10.2,6.9,20.4,9.9,30.6c0.8,2.5,1.4,5.1,2.1,7.6c0.7,2.5,1.4,5.1,2,7.6c0.7,2.5,1.3,5,1.9,7.6c0.6,2.5,1.2,5,1.8,7.5
			c1.1,5,2.2,10,3.2,15c1,5,1.8,9.9,2.7,14.8c0.4,2.5,0.8,4.9,1.2,7.3c0.4,2.4,0.7,4.9,1.1,7.3c0.4,2.4,0.6,4.8,0.9,7.3l0.2,1.8
			l0.1,0.7l0.1,0.9c0.2,1.2,0.4,2.3,0.6,3.5l0.1,0.9l0.1,0.8l0.3,1.6c0.2,1.1,0.4,2.1,0.6,3.2c0.4,2.2,0.9,4.3,1.4,6.4
			c0.9,4.3,2,8.5,3.1,12.6c2.3,8.2,4.9,16.2,7.9,23.9c11.9,30.6,29.2,55.8,48.1,74.4c4.7,4.7,9.5,8.9,14.3,12.8
			c4.8,3.9,9.7,7.4,14.4,10.7c9.5,6.5,18.6,11.9,27.1,16.4c17.1,9,31.7,14.6,42,18.2c5.1,1.8,9.2,3.1,11.9,4.1
			c2.7,0.9,4.2,1.4,4.2,1.4s-1.5,0.4-4.3,0.9c-2.9,0.5-7.2,1.2-12.8,1.5c-5.7,0.3-12.7,0.3-21-0.6c-8.3-0.9-17.7-2.6-28-5.9
			c-10.3-3.2-21.4-8-32.6-14.6c-5.6-3.3-11.3-7.2-16.9-11.4c-5.6-4.3-11.3-8.9-16.8-14.1c-11.1-10.3-21.8-22.4-31.5-36.2
			c-9.7-13.8-18.4-29.4-25.5-46.5c-3.6-8.5-6.8-17.4-9.6-26.6c-1.4-4.6-2.7-9.3-3.8-14c-0.6-2.4-1.1-4.8-1.7-7.1
			c-0.3-1.2-0.5-2.5-0.8-3.7l-0.4-1.9l-0.2-0.9l-0.2-0.9c-0.2-1.2-0.4-2.3-0.7-3.5l-0.2-0.9c0-0.1-0.1-0.6-0.1-0.6l-0.1-0.4
			l-0.4-1.7c-0.5-2.3-1-4.5-1.5-6.8c-0.5-2.3-1.1-4.6-1.6-6.9c-0.6-2.3-1.1-4.6-1.7-6.9c-1.1-4.6-2.3-9.2-3.5-13.9
			c-1.2-4.6-2.4-9.3-3.8-14c-0.6-2.3-1.3-4.7-2-7c-0.7-2.4-1.4-4.7-2.1-7.1c-0.7-2.4-1.4-4.7-2.1-7.1c-0.7-2.4-1.5-4.7-2.2-7.1
			c-3-9.5-6.2-19-9.8-28.5c-7-19-15.3-38-25.1-56.4c-9.8-18.4-21.3-36.2-34.5-52.5c-13.2-16.3-28.2-31.1-44.9-43
			c-16.7-11.8-35-20.6-54.3-24.4c-1.2-0.2-2.4-0.5-3.6-0.7l-3.6-0.6l-3.7-0.4c-1.2-0.1-2.2-0.2-3.4-0.3l-0.8-0.1l-1.1,0l-2.2-0.1
			l-1.7-0.1l-1.8,0c-2.5,0-4.9,0.1-7.4,0.2c-9.8,0.6-19.7,2.6-29.3,5.7c-19.2,6.3-37.3,17.6-53.4,31.6c-16.2,14-30.4,30.7-42.9,48.6
			c-12.6,17.9-23.4,37-32.8,56.6c-9.4,19.6-17.4,39.8-24.1,60c-13.5,40.5-22.4,81.2-27.9,120.3c-5.4,39.1-7.6,76.5-7.5,111.1
			c0.2,34.6,2.6,66.3,6.6,94.1c4,27.9,9.5,51.9,15.1,71.4c5.6,19.5,11.2,34.4,15.4,44.5c1,2.5,2,4.7,2.8,6.6
			c0.8,1.9,1.5,3.5,2.1,4.8C1651.7,1725.4,1652.3,1726.7,1652.3,1726.7z"/>
	</g>
	<g>
		<path d="M2189.9,1362.3c0,0-2.1,0.9-5.8,2.2c-1.9,0.6-4.1,1.4-6.8,2.1c-2.6,0.7-5.6,1.5-8.9,2.2c-1.6,0.3-3.4,0.7-5.1,1
			c-1.8,0.3-3.6,0.6-5.5,0.9c-3.8,0.6-7.9,1.1-12.1,1.4c-2.1,0.2-4.2,0.3-6.4,0.4c-2.2,0.1-4.4,0.1-6.6,0.1c-2.2,0-4.5,0-6.8-0.1
			c-2.3-0.1-4.5-0.2-6.8-0.4c-4.6-0.3-9.1-1-13.6-1.8c-1.1-0.2-2.2-0.4-3.4-0.7c-1.1-0.2-2.2-0.5-3.3-0.7c-2.2-0.5-4.4-1.1-6.5-1.7
			c-2.1-0.7-4.2-1.3-6.2-2c-2-0.8-4-1.5-5.9-2.3c-1.9-0.9-3.7-1.7-5.5-2.5c-1.7-0.9-3.4-1.8-5-2.7c-1.6-1-3.1-1.9-4.5-2.8
			c-1.4-0.9-2.7-1.9-3.9-2.8c-0.6-0.5-1.2-0.9-1.7-1.3c-0.5-0.5-1-0.9-1.5-1.4c-1-0.9-1.9-1.7-2.7-2.4c-0.8-0.7-1.4-1.5-2-2.1
			c-0.6-0.6-1.1-1.2-1.4-1.6c-0.8-0.9-1.2-1.4-1.2-1.4l14.3-14c0,0,0.4,0.3,1.1,0.8c0.7,0.5,1.7,1.3,3,2.2c0.7,0.4,1.4,1,2.2,1.5
			c0.4,0.3,0.8,0.6,1.3,0.9c0.5,0.3,0.9,0.6,1.4,0.9c1,0.6,2,1.3,3.1,1.9c1.1,0.6,2.3,1.3,3.6,2c1.3,0.6,2.6,1.3,4,2
			c1.4,0.6,2.9,1.3,4.4,2c1.6,0.6,3.2,1.3,4.8,1.9c1.7,0.6,3.4,1.2,5.1,1.9c1.8,0.6,3.6,1.2,5.4,1.8c1.9,0.5,3.7,1.1,5.7,1.6
			c1.9,0.5,3.9,1.1,5.9,1.5l3,0.7l3,0.7c4,0.9,8.1,1.7,12.2,2.5c4.1,0.7,8.1,1.4,12,2c2,0.3,3.9,0.6,5.8,0.9
			c1.9,0.3,3.8,0.6,5.6,0.8c3.7,0.5,7.1,1,10.4,1.4C2181.1,1361.2,2189.9,1362.3,2189.9,1362.3z"/>
	</g>
	<g>
		<path d="M2226.1,1461.6c0,0-1.7,0.9-4.8,2.1c-1.6,0.6-3.5,1.4-5.7,2.1c-1.1,0.4-2.3,0.8-3.5,1.2c-1.3,0.4-2.6,0.8-3.9,1.2
			c-2.8,0.8-5.8,1.5-9,2.4c-1.6,0.3-3.3,0.7-5,1.1c-1.7,0.4-3.4,0.7-5.2,1c-1.8,0.3-3.6,0.6-5.4,0.9c-1.8,0.3-3.7,0.5-5.6,0.7
			c-1.9,0.2-3.8,0.5-5.7,0.6c-1.9,0.1-3.8,0.3-5.8,0.4l-2.9,0.2l-2.9,0.1c-1.9,0-3.8,0.1-5.8,0.1c-3.8,0.1-7.6-0.2-11.2-0.3
			c-3.6-0.1-7.1-0.7-10.4-1c-1.6-0.2-3.3-0.4-4.8-0.7c-1.5-0.3-3-0.6-4.5-0.9c-1.4-0.3-2.8-0.6-4.1-0.9c-1.3-0.3-2.5-0.5-3.7-0.9
			c-2.3-0.6-4.3-1.3-5.9-1.8c-3.2-1-5-1.8-5-1.8l5.1-19.3c0,0,1.8,0.1,4.9,0.6c1.6,0.2,3.4,0.5,5.6,0.9c2.1,0.4,4.6,0.7,7.2,1.2
			c2.6,0.5,5.5,1.1,8.5,1.5c1.5,0.3,3.1,0.5,4.7,0.8c0.8,0.2,1.6,0.3,2.4,0.5c0.8,0.1,1.6,0.2,2.5,0.4c1.7,0.3,3.3,0.6,5.1,0.8
			c1.7,0.3,3.4,0.6,5.2,0.9c3.5,0.5,7.1,1.2,10.7,1.6c3.6,0.5,7.2,1,10.8,1.3c1.8,0.2,3.6,0.4,5.3,0.6c1.8,0.1,3.5,0.3,5.2,0.5
			c0.9,0.1,1.7,0.2,2.6,0.2c0.8,0.1,1.7,0.1,2.5,0.2c1.7,0.1,3.3,0.3,4.9,0.4c1.6,0.1,3.1,0.2,4.6,0.3c1.5,0.1,2.9,0.2,4.3,0.2
			c1.4,0.1,2.7,0.1,4,0.2c1.3,0,2.5,0.1,3.6,0.1c2.3,0.1,4.3,0.1,5.9,0.2c1.6,0,3,0.1,3.8,0.1
			C2225.6,1461.6,2226.1,1461.6,2226.1,1461.6z"/>
	</g>
</g>
<g id="Left_Eye" clip-path="url(#SVGID_2_)">
	<path id="White_2_" fill="#FFFFFF" d="M702.4,1487.3c0,237.5,105.2,382.5,235,382.5s235-145,235-382.5s-105.2-430-235-430
		S702.4,1249.8,702.4,1487.3z"/>
	<g id="Iris_2_">
		<defs>
			<path id="SVGID_5_" d="M788.8,1475.1c9.5,135.3,86.4,240.1,171.6,234.1c85.2-6,146.6-120.6,137.1-255.9
				c-9.5-135.3-86.4-240.2-171.6-234.1S779.3,1339.8,788.8,1475.1z"/>
		</defs>
		<clipPath id="SVGID_6_">
			<use xlink:href="#SVGID_5_"  overflow="visible"/>
		</clipPath>
		
			<linearGradient id="Iris_4_" gradientUnits="userSpaceOnUse" x1="631.5826" y1="1709.5074" x2="631.5826" y2="1218.9845" gradientTransform="matrix(-1 0 0 1 1574.7559 0)">
			<stop  offset="0" style="stop-color:#00ADA8"/>
			<stop  offset="0.5" style="stop-color:#047975"/>
			<stop  offset="1" style="stop-color:#035350"/>
		</linearGradient>
		<path id="Iris_3_" clip-path="url(#SVGID_6_)" fill="url(#Iris_4_)" d="M788.8,1475.1c9.5,135.3,86.4,240.1,171.6,234.1
			c85.2-6,146.6-120.6,137.1-255.9c-9.5-135.3-86.4-240.2-171.6-234.1S779.3,1339.8,788.8,1475.1z"/>
		<polygon id="Hilight_2_1_" clip-path="url(#SVGID_6_)" fill="#68C8C6" points="875.7,1558.9 804,1628.1 770.7,1511.4 864,1507.3 
					"/>
		<polygon id="Hilight_1_1_" clip-path="url(#SVGID_6_)" fill="#9ED8D5" points="883.2,1580.6 819.9,1660.6 777.4,1613.1 
			864.9,1548.9 		"/>
		<path id="Pupil_1_" clip-path="url(#SVGID_6_)" d="M829.3,1478c7.2,102.1,63.5,181.3,125.7,177c62.2-4.4,106.9-90.7,99.7-192.9
			c-7.2-102.1-63.5-181.3-125.7-177C866.7,1289.5,822,1375.8,829.3,1478z"/>
		<path id="Reflection_2_1_" clip-path="url(#SVGID_6_)" fill="#FFFFFF" d="M851.3,1364.7c-27.3,43.7-28.3,92.3-2.3,108.5
			c26,16.3,69.3-6,96.5-49.7c27.3-43.7,28.3-92.3,2.3-108.5C921.8,1298.8,878.6,1321,851.3,1364.7z"/>
		<path id="Reflection_1_1_" clip-path="url(#SVGID_6_)" fill="#FFFFFF" d="M939.9,1497.7c7.2,7,21.2,4.4,31.4-6
			c10.2-10.3,12.6-24.4,5.5-31.5c-7.1-7-21.2-4.4-31.4,6C935.2,1476.6,932.7,1490.7,939.9,1497.7z"/>
	</g>
</g>
<g id="Left_Eyelashes" clip-path="url(#SVGID_2_)">
	<g id="_x3C_Path_x3E__1_">
		<path d="M1121.1,1736.7c0,0,0.6-1.3,1.8-3.9c0.6-1.3,1.3-2.9,2.1-4.8c0.8-1.9,1.8-4.1,2.8-6.6c4.1-10.1,9.8-25,15.4-44.5
			c5.6-19.5,11.1-43.5,15.1-71.4c4.1-27.9,6.5-59.6,6.6-94.1c0.2-34.6-2.1-72-7.5-111.1c-5.4-39.1-14.3-79.8-27.9-120.3
			c-6.8-20.2-14.7-40.4-24.1-60c-9.4-19.6-20.2-38.7-32.8-56.6c-12.5-17.9-26.8-34.6-42.9-48.6c-16.1-14-34.2-25.3-53.4-31.6
			c-9.6-3.2-19.4-5.1-29.3-5.7c-2.5-0.2-4.9-0.2-7.4-0.2l-1.8,0l-1.7,0.1l-2.2,0.1l-1.1,0l-0.8,0.1c-1.1,0.1-2.2,0.2-3.4,0.3
			l-3.7,0.4l-3.6,0.6c-1.2,0.2-2.4,0.5-3.6,0.7c-19.3,3.8-37.6,12.5-54.3,24.4c-16.7,11.8-31.7,26.7-44.9,43
			c-13.2,16.3-24.7,34.1-34.5,52.5c-9.8,18.4-18.1,37.4-25.1,56.4c-3.5,9.5-6.8,19-9.8,28.5c-0.8,2.4-1.5,4.7-2.2,7.1
			c-0.7,2.4-1.4,4.7-2.1,7.1c-0.7,2.4-1.4,4.7-2.1,7.1c-0.7,2.3-1.3,4.7-2,7c-1.3,4.7-2.6,9.4-3.8,14c-1.2,4.6-2.4,9.3-3.5,13.9
			c-0.6,2.3-1.1,4.6-1.7,6.9c-0.5,2.3-1.1,4.6-1.6,6.9c-0.5,2.3-1,4.6-1.6,6.8l-0.4,1.7l-0.1,0.4c0,0-0.1,0.5-0.1,0.6l-0.2,0.9
			c-0.2,1.2-0.4,2.3-0.7,3.5l-0.2,0.9l-0.2,0.9l-0.4,1.9c-0.3,1.2-0.5,2.5-0.8,3.7c-0.6,2.4-1.1,4.8-1.7,7.1
			c-1.2,4.7-2.5,9.4-3.8,14c-2.8,9.2-6,18.1-9.6,26.6c-7.2,17-15.9,32.6-25.5,46.5c-9.7,13.8-20.4,25.9-31.5,36.2
			c-5.5,5.1-11.1,9.8-16.8,14.1c-5.6,4.3-11.3,8.1-16.9,11.4c-11.2,6.7-22.4,11.4-32.6,14.6c-10.3,3.2-19.8,5-28,5.9
			c-8.3,0.8-15.3,0.9-21,0.6c-5.7-0.3-10-1-12.8-1.5c-2.9-0.5-4.3-0.9-4.3-0.9s1.4-0.5,4.2-1.4c2.7-1,6.8-2.2,11.9-4.1
			c10.3-3.6,24.9-9.2,42-18.2c8.5-4.5,17.7-9.9,27.1-16.4c4.7-3.3,9.6-6.8,14.4-10.7c4.8-3.9,9.6-8.1,14.3-12.8
			c18.9-18.6,36.2-43.8,48.1-74.4c3-7.6,5.6-15.6,7.9-23.9c1.1-4.1,2.2-8.3,3.1-12.6c0.5-2.1,0.9-4.3,1.4-6.4
			c0.2-1.1,0.4-2.1,0.6-3.2l0.3-1.6l0.1-0.8l0.1-0.9c0.2-1.2,0.4-2.3,0.6-3.5l0.1-0.9l0.1-0.7l0.2-1.8c0.3-2.4,0.6-4.8,0.9-7.3
			c0.4-2.4,0.7-4.9,1.1-7.3c0.4-2.4,0.8-4.9,1.2-7.3c0.8-4.9,1.7-9.8,2.7-14.8c1-5,2-9.9,3.2-15c0.6-2.5,1.2-5,1.8-7.5
			c0.6-2.5,1.2-5,1.9-7.6c0.6-2.5,1.3-5,2-7.6c0.7-2.5,1.4-5.1,2.1-7.6c3-10.1,6.2-20.3,9.9-30.6c7.3-20.4,15.9-41,26.3-61.2
			c5.1-10.2,10.7-20.2,16.8-30.2c3-5,6.2-9.9,9.5-14.8c3.3-4.9,6.8-9.7,10.4-14.5c14.4-19,31.4-37.1,51.9-52.1
			c5.1-3.7,10.4-7.3,16-10.5c5.6-3.2,11.3-6.2,17.3-8.9c6-2.7,12.1-5,18.5-6.9c6.3-1.9,12.8-3.5,19.4-4.6c1.7-0.2,3.3-0.5,5-0.7
			l5-0.6l5-0.4c1.7-0.1,3.5-0.2,5.3-0.2l1.3,0l1.1,0l2.2,0l1.1,0l0.5,0c0.9,0,0.6,0,1,0l2.5,0.1c3.3,0.1,6.7,0.4,10,0.7
			c13.3,1.4,26.4,4.6,38.7,9.3c12.3,4.6,23.9,10.7,34.6,17.8c10.7,7,20.6,15,29.7,23.6c18.2,17.2,33.3,36.5,46.2,56.7
			c12.9,20.2,23.5,41.3,32.6,62.6c9,21.3,16.4,42.8,22.5,64.3c6.1,21.4,10.8,42.8,14.6,63.8c3.7,21,6.4,41.7,8.2,61.9
			c1.8,20.2,2.7,39.9,2.9,58.9c0.2,19-0.3,37.4-1.3,55c-2,35.2-6.4,67.2-12.2,95.2c-1.4,7-3,13.7-4.5,20.2
			c-1.6,6.5-3.2,12.7-4.9,18.6c-3.3,11.9-6.8,22.7-10.3,32.3c-3.4,9.6-6.8,18.1-10,25.4c-3.1,7.3-6,13.4-8.4,18.3
			c-1.2,2.5-2.3,4.6-3.2,6.5c-0.9,1.9-1.8,3.4-2.4,4.6C1121.8,1735.4,1121.1,1736.7,1121.1,1736.7z"/>
	</g>
	<g>
		<path d="M583.6,1372.3c0,0,8.7-1.1,21.8-2.7c3.2-0.4,6.7-0.9,10.4-1.4c1.8-0.2,3.7-0.5,5.6-0.8c1.9-0.3,3.8-0.6,5.8-0.9
			c3.9-0.6,8-1.3,12-2c4-0.8,8.1-1.5,12.2-2.5l3-0.7l3-0.7c2-0.4,3.9-1,5.9-1.5c1.9-0.5,3.8-1.1,5.7-1.6c1.8-0.6,3.6-1.2,5.4-1.8
			c1.7-0.7,3.5-1.3,5.1-1.9c1.6-0.7,3.2-1.3,4.8-1.9c1.5-0.7,3-1.3,4.4-2c1.4-0.7,2.7-1.4,4-2c1.2-0.7,2.4-1.4,3.6-2
			c1.1-0.6,2.1-1.3,3.1-1.9c0.5-0.3,1-0.6,1.4-0.9c0.4-0.3,0.9-0.6,1.3-0.9c0.8-0.6,1.6-1.1,2.2-1.5c1.3-1,2.3-1.7,3-2.2
			c0.7-0.5,1.1-0.8,1.1-0.8l14.3,14c0,0-0.4,0.5-1.2,1.4c-0.4,0.4-0.9,1-1.4,1.6c-0.6,0.6-1.2,1.4-2,2.1c-0.8,0.7-1.7,1.6-2.7,2.4
			c-0.5,0.4-1,0.9-1.5,1.4c-0.6,0.4-1.1,0.9-1.7,1.3c-1.2,0.9-2.5,1.9-3.9,2.8c-1.4,0.9-2.9,1.9-4.5,2.8c-1.6,0.9-3.3,1.8-5,2.7
			c-1.7,0.9-3.6,1.7-5.5,2.5c-1.9,0.8-3.9,1.5-5.9,2.3c-2,0.7-4.1,1.4-6.2,2c-2.1,0.6-4.3,1.2-6.5,1.7c-1.1,0.2-2.2,0.5-3.3,0.7
			c-1.1,0.2-2.2,0.5-3.4,0.7c-4.5,0.8-9.1,1.4-13.6,1.8c-2.3,0.2-4.6,0.3-6.8,0.4c-2.3,0.1-4.5,0.1-6.8,0.1c-2.2,0-4.4,0-6.6-0.1
			c-2.2-0.1-4.3-0.2-6.4-0.4c-4.2-0.3-8.3-0.8-12.1-1.4c-1.9-0.3-3.8-0.6-5.5-0.9c-1.8-0.4-3.5-0.7-5.1-1c-3.3-0.7-6.3-1.5-8.9-2.2
			c-2.6-0.7-4.9-1.5-6.8-2.1C585.7,1373.2,583.6,1372.3,583.6,1372.3z"/>
	</g>
	<g>
		<path d="M547.4,1471.6c0,0,0.5,0,1.4,0c0.9,0,2.2,0,3.8-0.1c1.7,0,3.6-0.1,5.9-0.2c1.1,0,2.4-0.1,3.6-0.1c1.3-0.1,2.6-0.1,4-0.2
			c1.4,0,2.8-0.1,4.3-0.2c1.5-0.1,3-0.2,4.6-0.3c1.6-0.1,3.2-0.2,4.9-0.4c0.8-0.1,1.7-0.1,2.5-0.2c0.8-0.1,1.7-0.2,2.6-0.2
			c1.7-0.2,3.5-0.3,5.2-0.5c1.8-0.2,3.5-0.4,5.3-0.6c3.6-0.3,7.2-0.9,10.8-1.3c3.6-0.4,7.2-1.1,10.7-1.6c1.8-0.2,3.5-0.5,5.2-0.9
			c1.7-0.3,3.4-0.6,5.1-0.8c0.8-0.1,1.7-0.2,2.5-0.4c0.8-0.2,1.6-0.3,2.4-0.5c1.6-0.3,3.1-0.5,4.7-0.8c3-0.4,5.9-1,8.5-1.5
			c2.6-0.5,5.1-0.8,7.2-1.2c2.1-0.4,4-0.7,5.6-0.9c3.1-0.5,4.9-0.6,4.9-0.6l5.1,19.3c0,0-1.8,0.7-5,1.8c-1.6,0.5-3.6,1.1-5.9,1.8
			c-1.1,0.4-2.4,0.6-3.7,0.9c-1.3,0.3-2.7,0.6-4.1,0.9c-1.4,0.3-2.9,0.6-4.5,0.9c-1.5,0.3-3.2,0.4-4.8,0.7c-3.3,0.4-6.8,0.9-10.4,1
			c-3.6,0.1-7.4,0.4-11.2,0.3c-1.9,0-3.8-0.1-5.8-0.1l-2.9-0.1l-2.9-0.2c-1.9-0.1-3.8-0.3-5.8-0.4c-1.9-0.1-3.8-0.4-5.7-0.6
			c-1.9-0.2-3.7-0.4-5.6-0.7c-1.8-0.3-3.6-0.6-5.4-0.9c-1.8-0.3-3.5-0.6-5.2-1c-1.7-0.4-3.3-0.7-5-1.1c-3.2-0.8-6.2-1.5-9-2.4
			c-1.4-0.4-2.7-0.8-3.9-1.2c-1.2-0.4-2.4-0.8-3.5-1.2c-2.2-0.8-4.1-1.5-5.7-2.1C549.1,1472.5,547.4,1471.6,547.4,1471.6z"/>
	</g>
</g>
<g id="Hair" clip-path="url(#SVGID_2_)">
	<path fill="#F3B6CF" stroke="#EB81B4" stroke-width="36" d="M1909.5,723c-285.8-235.8-530,153.3-530,153.3
		s-603.3-284.1-650.8,433.4s306.3,1216.7,294.2,1720c-9.2,380-350,586.7-533.3,316.7s-63.3-450,56.7-450s90,146.7,90,146.7
		s-110-126.6-126.7,36.7c-16.7,163.3,209.6,182.7,230-63.3c46.7-563.4-760-1120.1-706.7-2186.7c50.3-1006.3,1353.3-960,1930-430"/>
	<path fill="none" stroke="#EB81B4" stroke-width="36" d="M384.4,178.8c0,0,703.2-193.3,985.5,693.5"/>
	<path fill="none" stroke="#EB81B4" stroke-width="18" d="M1337.1,77.3c0,0,357.3,190.7,133.1,689.8"/>
	<path fill="none" stroke="#EB81B4" stroke-width="18" d="M1748.1,242.8c0,0,83,235.3,35.5,412.7"/>
	<path fill="none" stroke="#EB81B4" stroke-width="18" d="M1900.9,346.9c0,0,12.7,241.5-21.1,353.8"/>
	<path fill="none" stroke="#EB81B4" stroke-width="18" d="M607.5,2517.4c0,0,293.3,143.1,299.3,841.1"/>
</g>
<g id="Ear" clip-path="url(#SVGID_2_)">
	<g>
		<path fill="#FDF6AF" d="M1899.4,743.1c0,0-20.8-208.3,56.7-365.8c69.6-141.5,125-180,220-20s252.5,635-50,882.5"/>
		<path fill="#EAD463" d="M1899.4,743.1c0,0-0.1-0.4-0.4-1.2c-0.2-0.8-0.6-1.9-1-3.5c-0.8-3.1-2-7.7-3.3-13.7
			c-2.6-12.1-5.7-30-7.8-52.9c-2-22.9-3.1-51-1.2-83.2c0.9-16.1,2.7-33.1,5.2-51.1c2.5-18,5.7-36.8,10.1-56.3
			c4.3-19.5,9.9-39.7,16.9-60.3c3.5-10.3,7.4-20.6,11.8-31c4.3-10.4,9.3-20.9,14.3-31c5-10.2,10.4-20.4,16.1-30.8
			c5.7-10.3,11.9-20.7,18.8-31c6.9-10.3,14.5-20.5,23.7-30.4c4.6-4.9,9.6-9.7,15.2-14.2c5.7-4.5,12-8.6,19.3-12
			c7.2-3.3,15.5-5.7,24.1-6.3c8.6-0.7,17.3,0.4,25.1,2.8c7.9,2.4,15,5.9,21.4,9.8c6.4,4,12.1,8.4,17.4,13.1
			c10.6,9.4,19.6,19.6,27.9,30.1c8.3,10.5,15.9,21.4,23.1,32.5c3.6,5.5,7.1,11.1,10.5,16.7l2.5,4.2l2.6,4.3l2.4,4.2l2.5,4.4
			c6.5,11.6,12.6,23.3,18.5,35.2c11.7,23.7,22.2,48,31.8,72.6c9.7,24.6,18.5,49.4,26.3,74.5c7.9,25.1,15,50.3,21,75.5
			c12.2,50.5,20.7,101.2,24.7,150.8c2,24.8,2.8,49.3,2.5,73.3c-0.3,24-1.8,47.5-4.5,70.3c-5.3,45.6-15.5,88.2-29.2,126
			c-6.8,18.9-14.6,36.6-22.7,53c-8.2,16.4-17.1,31.4-26.3,44.9c-18.3,27.1-37.7,48-54.7,63.8c-17.1,15.8-31.8,26.5-42.1,33.3
			c-5.2,3.4-9.2,5.9-11.9,7.5c-2.7,1.6-4.2,2.4-4.2,2.4s4.3-4.9,12.3-14.2c3.9-4.7,8.8-10.3,14.4-17.2c5.6-6.8,11.8-14.7,18.5-23.6
			c1.7-2.3,3.3-4.6,5.1-6.9c1.7-2.4,3.5-4.8,5.2-7.3c3.5-5.1,7.1-10.3,10.8-15.9c3.7-5.6,7.3-11.5,11.1-17.6
			c3.7-6.2,7.5-12.6,11.2-19.3c14.8-26.8,29.6-58.1,41-94c2.9-9,5.6-18.2,8-27.7c2.5-9.5,4.8-19.2,6.8-29.1c2-10,3.9-20.1,5.5-30.5
			c1.6-10.4,2.9-21,4-31.7c4.4-43.1,4.9-89.1,1.3-136.5c-3.6-47.4-11.2-96.3-22.6-145.2c-11.4-48.9-26.5-97.8-45.1-145.3
			c-9.4-23.7-19.6-47.1-30.8-69.7c-5.6-11.3-11.5-22.4-17.7-33.2l-2.3-4l-2.4-4.1c-1.6-2.7-3.2-5.3-4.8-7.9
			c-3.3-5.3-6.6-10.5-10-15.7c-6.8-10.3-13.9-20.2-21.4-29.5c-7.5-9.3-15.3-17.9-23.6-25c-8.2-7.1-16.9-12.6-24.9-14.9
			c-8-2.3-14.8-1.7-22.5,1.9c-7.6,3.5-15.4,10-22.5,17.6c-7.1,7.7-13.7,16.5-19.9,25.6c-3.1,4.6-6,9.3-8.9,14
			c-2.9,4.7-5.7,9.5-8.4,14.3c-5.5,9.6-10.6,19.4-15.6,29.1c-5.1,9.8-9.6,19.2-13.8,28.7c-4.2,9.5-8,19-11.5,28.5
			c-7,19-12.6,37.8-17.4,56.2c-2.4,9.2-4.5,18.2-6.4,27.1c-1.9,8.9-3.6,17.6-5.2,26.2c-1.5,8.5-2.8,16.9-4,25.1
			c-1.2,8.2-2.3,16.1-3.3,23.8c-4.1,30.8-7,57.9-9.4,80.4c-2.4,22.5-4.1,40.3-5.4,52.4C1900.1,736.6,1899.4,743.1,1899.4,743.1z"/>
	</g>
	<g>
		<path fill="#FDF6AF" d="M2146.1,539.8c0,0,45,215-2.5,382.5"/>
		<path fill="#EAD463" d="M2146.1,539.8c0,0,0.2,0.3,0.6,1c0.4,0.7,1,1.7,1.6,3c0.7,1.3,1.5,2.9,2.5,4.8c0.9,1.9,2,4.1,3.1,6.6
			c2.3,5,4.8,11.1,7.5,18.2c0.7,1.8,1.3,3.6,2,5.5c0.7,1.9,1.3,3.8,2,5.8c1.4,4,2.7,8.2,4,12.7c1.4,4.4,2.6,9.1,3.9,13.9
			c0.7,2.4,1.3,4.9,1.9,7.4c0.6,2.5,1.2,5,1.8,7.6c2.3,10.3,4.5,21.3,6.2,32.7c0.4,2.9,1,5.7,1.3,8.6c0.4,2.9,0.7,5.8,1.1,8.8
			c0.4,2.9,0.7,5.9,1,8.9c0.3,3,0.5,6,0.8,9c0.3,3,0.5,6.1,0.7,9.1c0.2,3,0.4,6.1,0.6,9.2c0.1,3.1,0.3,6.1,0.3,9.2
			c0.1,3.1,0.2,6.2,0.2,9.2c0,6.2,0.1,12.3-0.2,18.5c-0.1,6.2-0.5,12.3-0.9,18.4c-0.2,3-0.3,6.1-0.6,9.1c-0.3,3-0.6,6-0.9,9
			c-0.3,3-0.6,5.9-1,8.9c-0.4,2.9-0.8,5.8-1.2,8.7c-0.8,5.8-1.7,11.4-2.8,16.9c-1,5.5-2.1,10.9-3.4,16.1c-0.6,2.6-1.2,5.2-1.9,7.7
			c-0.7,2.5-1.3,5-2,7.4c-1.4,4.8-2.7,9.5-4.3,14c-0.8,2.2-1.5,4.4-2.2,6.5c-0.7,2.1-1.4,4.2-2.2,6.2c-1.6,4-3.1,7.8-4.6,11.3
			c-0.4,0.9-0.7,1.7-1.1,2.6c-0.4,0.8-0.8,1.7-1.1,2.5c-0.7,1.6-1.5,3.2-2.2,4.7c-1.5,3-2.8,5.7-4.1,8.1c-1.3,2.4-2.5,4.6-3.6,6.4
			c-1.1,1.8-2,3.4-2.8,4.7c-0.8,1.3-1.4,2.2-1.8,2.8c-0.4,0.6-0.6,1-0.6,1s1.5-5.8,4.2-16c0.6-2.6,1.2-5.4,1.9-8.5
			c0.4-1.5,0.7-3.2,1.1-4.8c0.2-0.8,0.4-1.7,0.6-2.6c0.2-0.9,0.3-1.8,0.5-2.7c0.7-3.6,1.5-7.4,2.2-11.5c0.4-2,0.7-4.1,1.1-6.2
			c0.4-2.1,0.7-4.3,1.1-6.5c0.4-2.2,0.8-4.5,1.1-6.8c0.3-2.3,0.6-4.7,1-7.1c0.3-2.4,0.7-4.9,1-7.4c0.3-2.5,0.6-5,0.9-7.6
			c0.6-5.1,1.2-10.4,1.6-15.8c0.5-5.4,1-10.9,1.3-16.6c0.2-2.8,0.4-5.7,0.6-8.5c0.2-2.9,0.3-5.8,0.4-8.7c0.1-2.9,0.3-5.8,0.4-8.8
			c0.1-2.9,0.2-5.9,0.3-8.9c0.1-3,0.2-5.9,0.2-8.9c0-3,0.1-6,0.1-9c0.1-6,0-12,0-18c0-6-0.2-12-0.4-18c-0.2-6-0.4-12-0.7-17.9
			c-0.6-11.8-1.3-23.5-2.2-34.8c-0.8-11.3-1.9-22.1-3-32.4c-1.1-10.3-2.2-20-3.4-29c-1.2-9-2.4-17.2-3.5-24.4
			c-1.1-7.3-2.2-13.6-3.1-18.8C2147.3,545.7,2146.1,539.8,2146.1,539.8z"/>
	</g>
</g>
</svg>
